
<svg width="495px" height="429px" viewBox="0 0 495 429" version="1.1" xmlns="http://www.w3.org/2000/svg" xmlns:xlink="http://www.w3.org/1999/xlink">
    <defs>
        <linearGradient x1="50%" y1="100%" x2="50%" y2="0%" id="linearGradient-1">
            <stop stop-color="#808080" stop-opacity="0.25" offset="0%"></stop>
            <stop stop-color="#808080" stop-opacity="0.12" offset="54%"></stop>
            <stop stop-color="#808080" stop-opacity="0.1" offset="100%"></stop>
        </linearGradient>
        <linearGradient x1="50%" y1="100%" x2="50%" y2="0%" id="linearGradient-2">
            <stop stop-color="#808080" stop-opacity="0.25" offset="0%"></stop>
            <stop stop-color="#808080" stop-opacity="0.12" offset="54%"></stop>
            <stop stop-color="#808080" stop-opacity="0.1" offset="100%"></stop>
        </linearGradient>
        <linearGradient x1="50%" y1="99.9976318%" x2="50%" y2="0%" id="linearGradient-3">
            <stop stop-color="#808080" stop-opacity="0.25" offset="0%"></stop>
            <stop stop-color="#808080" stop-opacity="0.12" offset="54%"></stop>
            <stop stop-color="#808080" stop-opacity="0.1" offset="100%"></stop>
        </linearGradient>
        <linearGradient x1="49.9959147%" y1="100%" x2="49.9959147%" y2="0%" id="linearGradient-4">
            <stop stop-color="#808080" stop-opacity="0.25" offset="0%"></stop>
            <stop stop-color="#808080" stop-opacity="0.12" offset="54%"></stop>
            <stop stop-color="#808080" stop-opacity="0.1" offset="100%"></stop>
        </linearGradient>
    </defs>
    <g id="Page-1" stroke="none" stroke-width="1" fill="none" fill-rule="evenodd">
        <g id="Desktop-HD" transform="translate(-832.000000, -220.000000)" fill-rule="nonzero">
            <g id="undraw_analytics_5pgy" transform="translate(832.000000, 220.000000)">
                <rect id="Rectangle" fill="url(#linearGradient-1)" x="260" y="192" width="235" height="237"></rect>
                <rect id="Rectangle" fill="#FFFFFF" x="264" y="229" width="228" height="193"></rect>
                <rect id="Rectangle" fill="#BDBDBD" x="264" y="194" width="228" height="35"></rect>
                <circle id="Oval" fill="#FF5252" cx="281" cy="211" r="9"></circle>
                <circle id="Oval" fill="#FFFF00" cx="303" cy="211" r="9"></circle>
                <circle id="Oval" fill="#69F0AE" cx="326" cy="211" r="9"></circle>
                <rect id="Rectangle" fill="#E0E0E0" x="284" y="274" width="188" height="12"></rect>
                <rect id="Rectangle" fill="#E0E0E0" x="284" y="304" width="188" height="12"></rect>
                <rect id="Rectangle" fill="#E0E0E0" x="284" y="335" width="188" height="12"></rect>
                <rect id="Rectangle" fill="#E0E0E0" x="284" y="365" width="188" height="12"></rect>
                <circle id="Oval" fill="url(#linearGradient-2)" cx="359" cy="280" r="22"></circle>
                <circle id="Oval" fill="url(#linearGradient-2)" cx="413" cy="310" r="22"></circle>
                <circle id="Oval" fill="url(#linearGradient-2)" cx="386" cy="341" r="22"></circle>
                <circle id="Oval" fill="url(#linearGradient-2)" cx="461" cy="371" r="22"></circle>
                <circle id="Oval" fill="#F86B68" cx="359.5" cy="279.5" r="18.5"></circle>
                <circle id="Oval" fill="#F86B68" cx="413.5" cy="310.5" r="18.5"></circle>
                <circle id="Oval" fill="#F86B68" cx="386.5" cy="340.5" r="18.5"></circle>
                <circle id="Oval" fill="#69F0AE" cx="461.5" cy="370.5" r="18.5"></circle>
                <rect id="Rectangle" fill="url(#linearGradient-1)" x="0" y="0" width="235" height="237"></rect>
                <rect id="Rectangle" fill="#FFFFFF" x="3" y="38" width="228" height="193"></rect>
                <rect id="Rectangle" fill="#BDBDBD" x="3" y="2" width="228" height="35"></rect>
                <circle id="Oval" fill="#FF5252" cx="21" cy="20" r="9"></circle>
                <circle id="Oval" fill="#FFFF00" cx="43" cy="20" r="9"></circle>
                <circle id="Oval" fill="#69F0AE" cx="65" cy="20" r="9"></circle>
                <rect id="Rectangle" fill="#E0E0E0" x="53" y="84" width="21" height="101"></rect>
                <rect id="Rectangle" fill="#E0E0E0" x="89" y="84" width="21" height="101"></rect>
                <rect id="Rectangle" fill="#E0E0E0" x="125" y="84" width="21" height="101"></rect>
                <rect id="Rectangle" fill="#E0E0E0" x="160" y="84" width="21" height="101"></rect>
                <rect id="Rectangle" fill="#2196F3" x="53" y="134" width="21" height="50"></rect>
                <g id="Group" opacity="0.4" transform="translate(53.000000, 113.000000)" fill="#2196F3">
                    <rect id="Rectangle" x="0.355384615" y="0.253" width="21.5825641" height="21.5215"></rect>
                </g>
                <rect id="Rectangle" fill="#69F0AE" opacity="0.4" x="89" y="124" width="21" height="22"></rect>
                <rect id="Rectangle" fill="#FFFF00" opacity="0.4" x="160" y="125" width="21" height="22"></rect>
                <rect id="Rectangle" fill="#69F0AE" x="89" y="145" width="21" height="39"></rect>
                <rect id="Rectangle" fill="#F86B68" x="125" y="127" width="21" height="58"></rect>
                <rect id="Rectangle" fill="#F86B68" opacity="0.4" x="125" y="107" width="21" height="20"></rect>
                <rect id="Rectangle" fill="#FFFF00" x="160" y="147" width="21" height="38"></rect>
                <rect id="Rectangle" fill="url(#linearGradient-3)" x="110" y="90" width="235" height="237"></rect>
                <rect id="Rectangle" fill="#FFFFFF" x="113" y="128" width="228" height="193"></rect>
                <rect id="Rectangle" fill="#BDBDBD" x="113" y="93" width="228" height="35"></rect>
                <circle id="Oval" fill="#FF5252" cx="131" cy="110" r="9"></circle>
                <circle id="Oval" fill="#FFFF00" cx="153" cy="110" r="9"></circle>
                <circle id="Oval" fill="#69F0AE" cx="175" cy="110" r="9"></circle>
                <path d="M227.400724,158 L227,158 L227,291 L227.400724,291 C264.182489,291 294,261.226935 294,224.5 C294,187.773065 264.182489,158 227.400724,158 Z" id="Path" fill="#2196F3"></path>
                <path d="M227,158 C190.633403,158.218164 161.208919,187.642648 161,224 L227,224 L227,158 Z" id="Path" fill="#69F0AE"></path>
                <path d="M157,224 C157,224.141277 157,224.276903 157,224.41818 C157.002392,262.683165 187.826257,293.766942 226,294 L226,224 L157,224 Z" id="Path" fill="url(#linearGradient-4)"></path>
                <path d="M159,225 C159,225.135456 159,225.265268 159,225.400724 C159,262.028751 188.485589,291.782715 225,292 L225,225 L159,225 Z" id="Path" fill="#F86B68"></path>
            </g>
        </g>
    </g>
</svg>
