
<svg width="380px" height="323px" viewBox="0 0 380 323" version="1.1" xmlns="http://www.w3.org/2000/svg" xmlns:xlink="http://www.w3.org/1999/xlink">
    <g id="Page-1" stroke="none" stroke-width="1" fill="none" fill-rule="evenodd">
        <g id="Desktop-HD" transform="translate(-170.000000, -1974.000000)">
            <g id="undraw_marketing_v0iu" transform="translate(170.000000, 1974.000000)">
                <path d="M203.857013,298.301794 C108.331541,291.022566 -5.58703131,216.906751 0.212732692,140.592398 C6.01249669,64.2780444 116.343857,-6.76424818 211.869333,0.514980223 C307.394808,7.79420863 362.38253,150.412861 356.582755,226.727218 C350.782979,303.041576 299.382488,305.581039 203.857013,298.301794 Z" id="Path" fill="#F2F2F2" fill-rule="nonzero"></path>
                <rect id="Rectangle" fill="#3F3D56" fill-rule="nonzero" x="1" y="28" width="181" height="188"></rect>
                <path d="M91.8835184,84.0114335 C91.5835848,84.0044475 91.2830216,84 90.9814169,84 C73.8831056,84.00885 58.896564,95.4374335 54.3632212,111.924662 C49.8298785,128.41189 56.866404,145.89657 71.5563051,154.646821 C86.2462063,163.397072 104.971014,161.257501 117.308599,149.418983 C129.646184,137.580464 132.557509,118.959104 124.422146,103.919452 L92.9614899,127.563816 L91.8835184,84.0114335 Z" id="Path"></path>
                <path d="M124.278321,103.995659 C132.38982,118.977218 129.494409,137.531865 117.204077,149.329498 C104.913744,161.127132 86.2569041,163.260744 71.6205512,154.542468 C56.9841983,145.824192 49.9748198,128.402265 54.494812,111.976159 C59.0148041,95.5500519 73.9504132,84.1672581 90.9863991,84.1650256 C91.2866617,84.1650256 91.5858874,84.1694533 91.8844863,84.1764082 L91.4842452,68.0063083 C91.3181349,68.004818 91.1528446,68 90.9863991,68 C66.4632576,68.0070689 45.0243554,84.5394371 38.7830304,108.25604 C32.5417054,131.972644 43.0654575,156.917091 64.4081908,168.995353 C85.7509241,181.073615 112.552442,177.252253 129.669439,159.690401 C146.786436,142.128549 149.920002,115.236841 137.299621,94.2095404 L124.278321,103.995659 Z" id="Path" fill="#F86B68" fill-rule="nonzero"></path>
                <path d="M124.926224,104 L138,94.2109894 C128.291209,78.0920795 110.86728,68.163853 92,68 L92.4018539,84.1748845 C106.027501,84.4929213 118.438368,92.0579218 124.926224,104 L124.926224,104 Z" id="Path" fill="#F86B68" fill-rule="nonzero" opacity="0.3"></path>
                <line x1="118" y1="169" x2="137" y2="188" id="Path" stroke="#2F2E41" stroke-width="2"></line>
                <line x1="131" y1="51" x2="118" y2="75" id="Path" stroke="#2F2E41" stroke-width="2"></line>
                <rect id="Rectangle" fill="#F2F2F2" fill-rule="nonzero" x="122" y="188" width="31" height="7"></rect>
                <rect id="Rectangle" fill="#F2F2F2" fill-rule="nonzero" x="115" y="44" width="31" height="7"></rect>
                <rect id="Rectangle" fill="#3F3D56" fill-rule="nonzero" x="199" y="26" width="181" height="76"></rect>
                <path d="M273,85 L252.071171,85 C250.642943,77.0589659 250.642943,68.9410341 252.071171,61 L273,61 C270.642198,68.8392983 270.642198,77.1607017 273,85 Z" id="Path" fill="#FF6584" fill-rule="nonzero"></path>
                <path d="M330,85 L309.071171,85 C307.642943,77.0589659 307.642943,68.9410341 309.071171,61 L330,61 C327.642198,68.8392983 327.642198,77.1607017 330,85 Z" id="Path" fill="#FF6584" fill-rule="nonzero"></path>
                <path d="M244,68 L223.071171,68 C221.642943,60.0589659 221.642943,51.9410341 223.071171,44 L244,44 C241.642198,51.8392983 241.642198,60.1607017 244,68 Z" id="Path" fill="#F86B68" fill-rule="nonzero"></path>
                <path d="M280,68 L300.928832,68 C302.357056,60.0589655 302.357056,51.9410345 300.928832,44 L280,44 C282.357798,51.8392988 282.357798,60.1607012 280,68 Z" id="Path" fill="#F86B68" fill-rule="nonzero"></path>
                <path d="M336,68 L356.928832,68 C358.357056,60.0589655 358.357056,51.9410345 356.928832,44 L336,44 C338.357798,51.8392988 338.357798,60.1607012 336,68 L336,68 Z" id="Path" fill="#F86B68" fill-rule="nonzero"></path>
                <path d="M346,299.599442 C346,307.479956 309.314346,323 264.30314,323 C219.291934,323 183,307.479956 183,299.599442 C183,291.718929 219.291934,294.462141 264.30314,294.462141 C309.314346,294.462141 346,291.718929 346,299.599442 Z" id="Path" fill="#3F3D56" fill-rule="nonzero"></path>
                <path d="M346,299.599442 C346,307.479956 309.314346,323 264.30314,323 C219.291934,323 183,307.479956 183,299.599442 C183,291.718929 219.291934,294.462141 264.30314,294.462141 C309.314346,294.462141 346,291.718929 346,299.599442 Z" id="Path" fill="#000000" fill-rule="nonzero" opacity="0.1"></path>
                <ellipse id="Oval" fill="#3F3D56" fill-rule="nonzero" cx="264.5" cy="299.5" rx="81.5" ry="14.5"></ellipse>
                <ellipse id="Oval" fill="#000000" fill-rule="nonzero" opacity="0.1" cx="264" cy="299" rx="64" ry="11"></ellipse>
                <path d="M236,215 L215.071171,215 C213.642943,207.058966 213.642943,198.941034 215.071171,191 L236,191 C233.642198,198.839298 233.642198,207.160702 236,215 Z" id="Path" fill="#F86B68" fill-rule="nonzero"></path>
                <path d="M300.736973,91 L303.611332,92.4062494 C303.611332,92.4062494 319.180785,130.609368 313.911126,139.750007 C308.641466,148.890645 292.113892,166 292.113892,166 L289,157.328126 L301.73521,130.312446 L300.736973,91 Z" id="Path" fill="#575A89" fill-rule="nonzero"></path>
                <path d="M300.736973,91 L303.611332,92.4062494 C303.611332,92.4062494 319.180785,130.609368 313.911126,139.750007 C308.641466,148.890645 292.113892,166 292.113892,166 L289,157.328126 L301.73521,130.312446 L300.736973,91 Z" id="Path" fill="#000000" fill-rule="nonzero" opacity="0.1"></path>
                <path d="M297.515595,282 C297.515595,282 301.489353,291.533334 299.385599,292.266665 C297.281846,293 294.710609,293 292.139325,293 C289.568041,293 286.529317,292.022221 286.061818,291.044443 C285.594319,290.066664 287.931818,283.711109 287.931818,283.711109 L297.515595,282 Z" id="Path" fill="#F2F2F2" fill-rule="nonzero"></path>
                <path d="M244.256302,287.596745 C244.256302,287.596745 246.882656,295.580553 245.68886,296.036769 C244.495065,296.492985 240.674915,298.545969 238.526083,297.861641 C236.37725,297.177313 233.034625,295.58056 232.318346,294.896225 C231.602067,294.211889 232.318346,290.562161 232.318346,290.562161 L235.660975,286 L244.256302,287.596745 Z" id="Path" fill="#F2F2F2" fill-rule="nonzero"></path>
                <path d="M289.920142,165.197358 L293.273658,166.377312 C293.273658,166.377312 294.131168,174.401004 293.195383,177.232897 C292.259598,180.06479 290.154083,200.595997 291.323813,204.843831 C292.493543,209.091665 291.791708,215.935406 291.791708,215.935406 C291.791708,215.935406 298.810088,239.062512 297.406409,244.018324 C296.00273,248.974136 296.236679,256.053859 297.640358,259.593722 C299.044037,263.133586 300.213763,264.549531 299.511924,267.381424 C298.810084,270.213317 297.406409,271.629258 298.810088,273.989167 C300.213767,276.349076 303.021114,277.05705 301.617439,279.180969 C300.213763,281.304888 298.810088,282.956822 299.277986,284.372767 C299.745885,285.788712 286.878846,288.384611 285.709116,286.260696 C285.709116,286.260696 289.452255,282.956822 285.709116,281.068894 C281.965977,279.180965 283.135711,272.101242 283.135711,272.101242 C283.135711,272.101242 276.585221,244.962284 276.81917,242.838369 C277.053119,240.714454 266.525545,207.675724 266.525545,207.675724 C266.525545,207.675724 251.085101,254.873904 250.14932,256.997823 C249.213539,259.121742 251.31905,264.313556 250.14932,265.729485 C248.97959,267.145414 250.617211,270.685293 248.97959,272.101242 C247.34197,273.51719 251.786941,278.708985 248.97959,280.596913 C246.17224,282.484842 244.76856,288.384611 245.002506,289.564565 C245.236451,290.74452 233.305205,289.328575 233.305205,287.67664 C233.305205,286.024706 233.53915,284.608757 232.36942,281.776868 C231.19969,278.944979 230.497854,277.057066 231.433639,276.113086 C232.369424,275.169105 233.07126,273.989167 232.135475,270.685293 C231.19969,267.38142 233.53915,257.233813 232.837315,255.345885 C232.135479,253.457956 232.36942,240.71445 232.36942,240.71445 C232.36942,240.71445 234.708872,222.071168 234.007045,219.003281 C233.305217,215.935394 234.007045,215.227427 234.24099,214.047473 C234.474935,212.867518 235.87861,200.124009 236.814395,198.236084 C237.75018,196.348159 238.91991,164.017399 244.30067,162.365465 C249.68143,160.71353 289.920142,165.197358 289.920142,165.197358 Z" id="Path" fill="#2F2E41" fill-rule="nonzero"></path>
                <path d="M292.352944,290.650781 C292.352944,290.650781 300.823531,289.202128 301.294118,290.650781 C301.764704,292.099435 303.176472,303.447227 299.882354,303.688669 C296.588235,303.93011 290.941176,304.654439 290,302.481457 C289.058829,300.308475 284.588237,298.859822 284.588237,298.859822 C284.588237,298.859822 278,296.928281 278,294.755304 C278,292.582326 278.235293,289.202128 279.411764,288.960687 C280.588234,288.719245 285.294121,286.063376 285.294121,285.09761 C285.294121,284.131844 292.352944,290.650781 292.352944,290.650781 Z" id="Path" fill="#2F2E41" fill-rule="nonzero"></path>
                <path d="M238.810561,294.406006 C238.810561,294.406006 244.816806,292.505664 246.202861,293.693379 C247.588917,294.881094 249.436993,307.94596 246.202861,307.708418 C242.96873,307.470876 234.421387,308.896133 233.959366,306.995787 C233.497345,305.095441 227.260095,304.620365 227.260095,304.620365 C227.260095,304.620365 220.560824,301.294762 221.022844,297.731617 C221.484865,294.168472 222.177891,292.980772 224.950001,292.743214 C227.722112,292.505656 229.801196,289.180069 230.032209,288.942527 C230.263221,288.704985 232.299985,286.968606 232.552152,288.905737 C232.804319,290.842869 235.807442,295.118636 238.810561,294.406006 Z" id="Path" fill="#2F2E41" fill-rule="nonzero"></path>
                <circle id="Oval" fill="#FFB9B9" fill-rule="nonzero" cx="258.5" cy="52.5" r="14.5"></circle>
                <path d="M271.11232,56 C271.11232,56 272.058184,72.1139258 275.605169,73.5569629 C279.152155,75 257.633775,75 257.633775,75 C257.633775,75 257.39731,64.8987362 254.323254,62.493673 C251.249198,60.0886098 271.11232,56 271.11232,56 Z" id="Path" fill="#FFB9B9" fill-rule="nonzero"></path>
                <path d="M276.175132,69.697806 C276.175132,69.697806 261.713044,64.3027003 256.581332,72.7472103 C256.581332,72.7472103 240.253166,80.4880134 239.086868,85.1794083 C237.920571,89.8708032 248.88377,125.056265 248.88377,125.056265 C248.88377,125.056265 248.88377,154.142914 246.551183,157.192322 C244.218596,160.24173 239.786656,163.525704 242.819032,164.229414 C245.851407,164.933125 293.436345,170.093658 293.203086,167.04425 C292.969828,163.994842 289.937452,161.414575 293.203086,159.53802 C296.46872,157.661464 293.669604,155.550332 295.76894,149.451519 C297.868277,143.352706 303,92.9202115 303,92.9202115 C303,92.9202115 299.501107,86.586826 298.801331,85.8831191 C298.101555,85.1794123 276.175132,69.697806 276.175132,69.697806 Z" id="Path" fill="#575A89" fill-rule="nonzero"></path>
                <path d="M234.529415,172 C234.529415,172 225.19066,192.920122 233.332139,195.772864 C241.473618,198.625606 240.994693,173.664107 240.994693,173.664107 L234.529415,172 Z" id="Path" fill="#FFB9B9" fill-rule="nonzero"></path>
                <path d="M265.558579,55.0577302 C264.727005,53.3876957 263.482207,51.461094 261.622782,51.5627897 C260.682558,51.6142131 259.871755,52.2005784 259.033771,52.6310161 C258.195788,53.0614537 257.122114,53.3282898 256.355891,52.7797207 C255.235142,51.9773296 255.582635,50.0741651 254.580158,49.1275352 C253.485768,48.0941304 251.284687,48.6710971 250.578563,47.3406193 C250.201525,46.6301851 250.506021,45.7487602 250.341602,44.9611434 C249.196115,44.9826938 248.013973,44.9978043 246.952198,44.5664371 C245.890423,44.1350699 244.971009,43.1355966 245.0007,41.9876678 C245.064868,41.197641 245.443599,40.4667532 246.051511,39.9597778 C247.49723,38.6422033 249.58847,38.3895363 251.372443,37.5904561 C252.792131,36.9545424 254.026577,35.9634986 255.421942,35.2756116 C257.82347,34.091726 260.594092,33.8621442 263.262595,34.0665325 C267.308735,34.3764337 271.400466,35.7222872 274.334539,38.5319554 C277.268612,41.3416237 278.821418,45.7742306 277.556039,49.638676 C276.839006,51.8284588 275.319442,53.669053 274.47145,55.8113047 C273.951606,57.2773046 273.591264,58.7952942 273.396695,60.3388629 L272.801344,64 C272.893998,63.4302286 271.645782,62.0010772 271.236418,61.661026 C270.343513,60.9192671 269.044702,61.1709491 268.215732,60.4838849 C266.989574,59.4676198 266.280016,56.5066046 265.558579,55.0577302 Z" id="Path" fill="#2F2E41" fill-rule="nonzero"></path>
                <path d="M245.012573,83.1340491 L241.265952,85.475398 C241.265952,85.475398 235.177688,122.234698 235.880181,127.385685 C236.582675,132.536672 233.070217,161.569493 234.241036,163.91085 C235.411855,166.252207 235.880181,166.720477 235.880181,168.125294 C235.880181,169.530111 232.601887,174.68109 234.709362,175.617634 C236.816838,176.554177 244.544247,178.193126 244.544247,175.617634 C244.544247,173.042142 243.13926,169.530107 245.715066,167.891155 C248.290871,166.252203 250.164176,155.716101 250.164176,155.716101 C250.164176,155.716101 251.334995,144.945861 252.505807,142.838639 C253.676618,140.731417 255.315775,133.004938 255.315775,129.727042 C255.315775,126.449146 258.12574,113.103406 256.486595,106.313474 C254.847449,99.5235426 254.379127,81.2609621 245.012573,83.1340491 Z" id="Path" fill="#000000" fill-rule="nonzero" opacity="0.1"></path>
                <path d="M243.012576,83.1340492 L239.265951,85.4753981 C239.265951,85.4753981 233.177692,122.234702 233.880185,127.385685 C234.582678,132.536668 231.070217,161.569493 232.241036,163.91085 C233.411855,166.252206 233.880185,166.72048 233.880185,168.125293 C233.880185,169.530107 230.60189,174.681094 232.709366,175.617633 C234.816841,176.554173 242.544246,178.193129 242.544246,175.617633 C242.544246,173.042138 241.139263,169.530107 243.715065,167.891158 C246.290866,166.25221 248.164179,155.716101 248.164179,155.716101 C248.164179,155.716101 249.334998,144.945861 250.505809,142.838639 C251.676621,140.731417 253.315774,133.004942 253.315774,129.727042 C253.315774,126.449141 256.125742,113.103425 254.486593,106.313474 C252.847444,99.523523 252.379129,81.2609623 243.012576,83.1340492 Z" id="Path" fill="#575A89" fill-rule="nonzero"></path>
            </g>
        </g>
    </g>
</svg>
