
<svg width="240px" height="200px" viewBox="0 0 240 200" version="1.1" xmlns="http://www.w3.org/2000/svg" xmlns:xlink="http://www.w3.org/1999/xlink">
    <g id="Page-1" stroke="none" stroke-width="1" fill="none" fill-rule="evenodd">
        <g id="Desktop-HD-Copy" transform="translate(-746.000000, -759.000000)" fill-rule="nonzero">
            <g id="undraw_empty_cart_co35" transform="translate(746.000000, 759.000000)">
                <path d="M11.1320856,190.571647 C14.4551925,196.734481 21.5080214,199.38007 21.5080214,199.38007 C21.5080214,199.38007 23.1730267,192.033698 19.8499198,185.87085 C16.5268128,179.708003 9.47398396,177.062428 9.47398396,177.062428 C9.47398396,177.062428 7.80898128,184.408799 11.1320856,190.571647 Z" id="Path" fill="#2F2E41"></path>
                <path d="M13.4161845,188.544112 C19.4157594,192.153655 21.7263877,199.323203 21.7263877,199.323203 C21.7263877,199.323203 14.3097781,200.640527 8.31020321,197.030981 C2.31062834,193.421436 0,186.25189 0,186.25189 C0,186.25189 7.41660695,184.93457 13.4161845,188.544112 Z" id="Path" fill="#F86B68"></path>
                <rect id="Rectangle" fill="#F2F2F2" x="110.494251" y="9.60101337" width="37.4331551" height="1"></rect>
                <rect id="Rectangle" fill="#F2F2F2" x="137.232219" y="10.0020829" width="1" height="4.94652406"></rect>
                <rect id="Rectangle" fill="#F2F2F2" x="120.922059" y="10.0020829" width="1" height="4.94652406"></rect>
                <rect id="Rectangle" fill="#F2F2F2" x="129.478209" y="35.2694626" width="37.4331551" height="1"></rect>
                <rect id="Rectangle" fill="#F2F2F2" x="139.638636" y="30.4566283" width="1" height="4.94652406"></rect>
                <rect id="Rectangle" fill="#F2F2F2" x="155.948797" y="30.4566283" width="1" height="4.94652406"></rect>
                <rect id="Rectangle" fill="#F2F2F2" x="179.210829" y="47.3015481" width="37.4331551" height="1"></rect>
                <rect id="Rectangle" fill="#F2F2F2" x="189.371257" y="42.4887139" width="1" height="4.94652406"></rect>
                <rect id="Rectangle" fill="#F2F2F2" x="205.681417" y="42.4887139" width="1" height="4.94652406"></rect>
                <rect id="Rectangle" fill="#F2F2F2" x="175.467513" y="171.365719" width="37.4331551" height="1"></rect>
                <rect id="Rectangle" fill="#F2F2F2" x="185.627941" y="166.552885" width="1" height="4.94652406"></rect>
                <rect id="Rectangle" fill="#F2F2F2" x="201.938102" y="166.552885" width="1" height="4.94652406"></rect>
                <rect id="Rectangle" fill="#F2F2F2" x="111.56377" y="85.5368422" width="37.4331551" height="1"></rect>
                <rect id="Rectangle" fill="#F2F2F2" x="121.724198" y="80.724008" width="1" height="4.94652406"></rect>
                <rect id="Rectangle" fill="#F2F2F2" x="138.034358" y="80.724008" width="1" height="4.94652406"></rect>
                <rect id="Rectangle" fill="#F2F2F2" x="123.328476" y="149.975345" width="37.4331551" height="1"></rect>
                <rect id="Rectangle" fill="#F2F2F2" x="133.488904" y="145.162511" width="1" height="4.94652406"></rect>
                <rect id="Rectangle" fill="#F2F2F2" x="149.799064" y="145.162511" width="1" height="4.94652406"></rect>
                <rect id="Rectangle" fill="#F2F2F2" x="183.221524" y="130.456628" width="37.4331551" height="1"></rect>
                <rect id="Rectangle" fill="#F2F2F2" x="193.381952" y="125.643794" width="1" height="4.94652406"></rect>
                <rect id="Rectangle" fill="#F2F2F2" x="209.692112" y="125.643794" width="1" height="4.94652406"></rect>
                <polygon id="Path" fill="#2F2E41" points="96.8074866 187.749733 33.4957219 187.749733 33.4957219 187.294385 96.3518717 187.294385 96.3518717 165.203476 38.8181818 165.203476 36.023262 159.380749 36.4339572 159.18369 39.1048128 164.747861 96.8074866 164.747861"></polygon>
                <circle id="Oval" fill="#3F3D56" cx="41.9220615" cy="194.126473" r="4.78254813"></circle>
                <circle id="Oval" fill="#3F3D56" cx="89.0643128" cy="194.126473" r="4.78254813"></circle>
                <circle id="Oval" fill="#3F3D56" cx="144.632957" cy="92.5542781" r="2.96062567"></circle>
                <path d="M103.578979,157.688016 L32.416238,157.688016 L17.0182995,107.357409 L119.436513,107.357409 L119.343326,107.65354 L103.578979,157.688016 Z M32.7531765,157.232535 L103.24492,157.232535 L118.815553,107.81288 L17.6339091,107.81288 L32.7531765,157.232535 Z" id="Shape" fill="#2F2E41"></path>
                <polygon id="Path" fill="#F2F2F2" points="98.0240642 155.068984 35.5192513 155.068984 21.9946524 110.431818 111.952139 110.431818 111.870321 110.694652"></polygon>
                <polygon id="Path" fill="#2F2E41" points="120.712567 102.860963 120.272193 102.744118 123.277807 91.415508 140.761497 91.415508 140.761497 91.871123 123.628342 91.871123"></polygon>
                <rect id="Rectangle" fill="#2F2E41" x="21.9942246" y="122.616003" width="92.3243583" height="1"></rect>
                <rect id="Rectangle" fill="#2F2E41" x="27.1280588" y="139.39673" width="81.9033476" height="1"></rect>
                <rect id="Rectangle" fill="#2F2E41" x="67.9983316" y="107.585142" width="1" height="49.8751364"></rect>
                <polygon id="Rectangle" fill="#2F2E41" transform="translate(87.438986, 132.522698) rotate(-86.249190) translate(-87.438986, -132.522698) " points="62.4485083 132.294919 112.429463 132.294919 112.429463 132.750478 62.4485083 132.750478"></polygon>
                <polygon id="Rectangle" fill="#2F2E41" transform="translate(49.013150, 132.522706) rotate(-3.729000) translate(-49.013150, -132.522706) " points="48.7853706 107.532229 49.2409294 107.532229 49.2409294 157.513184 48.7853706 157.513184"></polygon>
                <rect id="Rectangle" fill="#2F2E41" x="0" y="199.197861" width="239.572193" height="1"></rect>
                <path d="M159.200717,16.5443824 C159.200717,16.5443824 163.109385,27.6690535 160.704048,29.3805428 C158.298711,31.0920321 168.822053,45.0691738 168.822053,45.0691738 L181.450059,41.6461979 L174.534722,29.9510294 C174.534722,29.9510294 173.632722,18.2558636 173.632722,16.5443743 C173.632722,14.832885 159.200717,16.5443824 159.200717,16.5443824 Z" id="Path" fill="#A0616A"></path>
                <path d="M159.200717,16.5443824 C159.200717,16.5443824 163.109385,27.6690535 160.704048,29.3805428 C158.298711,31.0920321 168.822053,45.0691738 168.822053,45.0691738 L181.450059,41.6461979 L174.534722,29.9510294 C174.534722,29.9510294 173.632722,18.2558636 173.632722,16.5443743 C173.632722,14.832885 159.200717,16.5443824 159.200717,16.5443824 Z" id="Path" fill="#000000" opacity="0.1"></path>
                <path d="M152.640011,95.8433235 C152.640011,95.8433235 151.499019,110.105725 152.640011,117.522171 C153.781003,124.938618 155.492492,145.476476 155.492492,145.476476 C155.492492,145.476476 155.492492,184.270203 161.767947,184.840698 C168.043401,185.411193 172.607372,185.98169 173.177866,183.699706 C173.748361,181.417722 170.325388,180.27673 172.036874,179.135738 C173.748361,177.994746 174.318858,174.001275 172.036874,169.437307 C169.75489,164.87334 172.036874,118.663163 172.036874,118.663163 L182.876299,147.75846 C182.876299,147.75846 184.017291,171.719291 185.158283,175.142267 C186.299275,178.565243 184.017291,184.840698 188.010762,185.411195 C192.004233,185.981693 196.568203,182.558714 198.850187,181.417722 C201.132171,180.27673 195.427211,180.27673 196.568203,179.706225 C197.709195,179.135719 201.132171,177.424241 199.991179,176.853743 C198.850187,176.283246 197.709195,148.899441 197.709195,148.899441 C197.709195,148.899441 194.571465,90.4236123 190.577995,88.1416337 C186.584524,85.8596551 184.017299,89.7902326 184.017299,89.7902326 L152.640011,95.8433235 Z" id="Path" fill="#2F2E41"></path>
                <path d="M162.908939,182.558714 L162.908939,187.122682 C162.908939,187.122682 157.774476,199.528944 162.908939,199.528944 C168.043401,199.528944 172.036874,200.814586 172.036874,199.103099 L172.036874,183.699706 L162.908939,182.558714 Z" id="Path" fill="#2F2E41"></path>
                <path d="M196.568203,182.550612 L196.568203,187.11458 C196.568203,187.11458 201.702666,199.52084 196.568203,199.52084 C191.433741,199.52084 187.440267,200.806484 187.440267,199.094995 L187.440267,183.691604 L196.568203,182.550612 Z" id="Path" fill="#2F2E41"></path>
                <circle id="Oval" fill="#A0616A" cx="167.18766" cy="14.5476471" r="10.2689278"></circle>
                <path d="M164.04993,33.659262 C164.04993,33.659262 166.902412,42.2167005 171.46638,40.5052139 L176.030348,38.7937166 L184.017291,93.5613396 C184.017291,93.5613396 177.741834,102.689275 168.613898,96.9843155 C159.485963,91.2793556 164.04993,33.659262 164.04993,33.659262 Z" id="Path" fill="#F86B68"></path>
                <path d="M172.036874,31.9477834 L174.604107,26.5280722 C174.604107,26.5280722 189.722251,33.6592727 192.004235,35.9412567 C194.286219,38.2232406 194.286219,41.6462166 194.286219,41.6462166 L190.292746,55.908615 C190.292746,55.908615 191.433738,87.2858877 191.433738,88.4268877 C191.433738,89.5678877 195.427211,95.8433342 192.57473,93.5613503 C189.722249,91.2793663 189.151754,88.9973824 186.86977,92.4203583 C184.587786,95.8433342 179.453324,99.8368075 179.453324,99.8368075 L172.036874,31.9477834 Z" id="Path" fill="#3F3D56"></path>
                <path d="M192.004235,73.023484 L190.292738,88.9973717 C190.292738,88.9973717 180.02381,98.1253075 182.305794,98.6958048 C184.587778,99.2663021 185.72877,96.9843075 185.72877,96.9843075 C185.72877,96.9843075 189.722243,100.977781 192.004227,98.6958048 C194.286211,96.4138289 199.991176,74.7349733 199.991176,74.7349733 L192.004235,73.023484 Z" id="Path" fill="#A0616A"></path>
                <path d="M167.406417,0.0347245989 C165.129914,-0.046657754 162.693719,-0.0869144385 160.774316,1.13986096 C159.891189,1.75552698 159.116602,2.51377935 158.482257,3.38358556 C156.612864,5.74681016 154.997623,8.7202861 155.692008,11.6524011 L156.498513,11.3378556 C156.498487,12.120528 156.324492,12.8934091 155.989115,13.6005856 C156.102684,13.2703449 156.483024,13.8041979 156.381201,14.138246 L155.492781,17.0528636 C156.953227,16.5174652 158.769949,17.6014973 158.992297,19.141016 C159.093832,15.7556604 159.445024,11.8737299 162.191227,9.89146791 C163.576123,8.89182086 165.328834,8.58665508 167.01519,8.31566578 C168.57089,8.06566578 170.20177,7.82727273 171.691866,8.33942513 C173.181963,8.85157754 174.45088,10.3755214 174.11307,11.9145401 C174.800139,11.677861 175.568567,12.1566952 175.908115,12.7991818 C176.247663,13.4416684 176.2655,14.1995829 176.275719,14.9262032 C177.008102,15.4438048 177.84158,14.4159893 178.140059,13.5702888 C178.840682,11.5851711 179.46343,9.47205615 179.086003,7.40103743 C178.708575,5.33001872 177.020963,3.35084225 174.915848,3.34381818 C175.171365,3.06315865 175.307694,2.69411404 175.295997,2.31474332 L173.560896,2.16813904 C174.001384,2.10576814 174.406484,1.89219053 174.706818,1.56398396 C174.010187,2.33054278 168.532949,0.0749946524 167.406417,0.0347245989 Z" id="Path" fill="#2F2E41"></path>
                <path d="M166.902406,30.2362861 C166.902406,30.2362861 162.258211,25.6852567 160.586837,25.9640348 C158.915463,26.2428128 156.633484,30.2362861 156.633484,30.2362861 C156.633484,30.2362861 142.94158,34.800254 143.512075,39.3642219 C144.08257,43.9281898 150.358021,66.1775321 150.358021,66.1775321 C150.358021,66.1775321 155.492487,92.9908449 150.928519,95.8433235 C146.364551,98.6958021 172.607366,106.112251 173.177861,102.689275 C173.748356,99.2662995 174.889358,65.0365401 173.177861,59.9020775 C171.466364,54.767615 166.902406,30.2362861 166.902406,30.2362861 Z" id="Path" fill="#3F3D56"></path>
                <path d="M186.86977,39.3642219 L193.923955,39.3642219 C193.923955,39.3642219 198.850187,61.0430695 199.420682,63.3250561 C199.991176,65.6070428 201.132179,76.4464626 200.561674,76.4464626 C199.991168,76.4464626 188.581259,74.1644786 188.581259,75.8759679 L186.86977,39.3642219 Z" id="Path" fill="#3F3D56"></path>
                <path d="M186.631016,93.0481283 L159.625668,93.0481283 C156.990353,80.9251337 156.770168,69.2121684 159.625668,58.0213904 L186.631016,58.0213904 C182.272944,69.010885 182.000602,80.6436043 186.631016,93.0481283 Z" id="Path" fill="#F2F2F2"></path>
                <path d="M148.64654,78.1579439 L156.633484,81.5809385 C156.633484,81.5809385 172.036874,83.8629225 172.036874,77.5874652 C172.036874,71.312008 156.633484,74.7349866 156.633484,74.7349866 L151.498676,73.093238 L148.64654,78.1579439 Z" id="Path" fill="#A0616A"></path>
                <path d="M150.358021,35.941246 L143.51207,37.6527433 L138.377612,67.8890214 C138.377612,67.8890214 136.666115,75.8759652 139.518604,76.4464599 C142.371094,77.0169545 150.358021,81.5809385 150.358021,81.5809385 C150.358021,81.5809385 151.499013,73.0234973 153.780997,73.0234973 L148.076043,68.459516 L151.499019,48.4921684 L150.358021,35.941246 Z" id="Path" fill="#3F3D56"></path>
                <rect id="Rectangle" fill="#F2F2F2" x="16.1092246" y="94.3603717" width="37.4331551" height="1"></rect>
                <rect id="Rectangle" fill="#F2F2F2" x="26.2696524" y="89.5475374" width="1" height="4.94652406"></rect>
                <rect id="Rectangle" fill="#F2F2F2" x="42.5798128" y="89.5475374" width="1" height="4.94652406"></rect>
                <rect id="Rectangle" fill="#F2F2F2" x="29.2108289" y="15.2159866" width="37.4331551" height="1"></rect>
                <rect id="Rectangle" fill="#F2F2F2" x="55.9487968" y="15.6170561" width="1" height="4.94652406"></rect>
                <rect id="Rectangle" fill="#F2F2F2" x="39.6386364" y="15.6170561" width="1" height="4.94652406"></rect>
                <rect id="Rectangle" fill="#F2F2F2" x="66.9113636" y="67.8897834" width="37.4331551" height="1"></rect>
                <rect id="Rectangle" fill="#F2F2F2" x="93.6493316" y="68.2908529" width="1" height="4.94652406"></rect>
                <rect id="Rectangle" fill="#F2F2F2" x="77.3391711" y="68.2908529" width="1" height="4.94652406"></rect>
                <rect id="Rectangle" fill="#F2F2F2" x="3.275" y="67.6224037" width="37.4331551" height="1"></rect>
                <rect id="Rectangle" fill="#F2F2F2" x="30.0129679" y="68.0234733" width="1" height="4.94652406"></rect>
                <rect id="Rectangle" fill="#F2F2F2" x="13.7028075" y="68.0234733" width="1" height="4.94652406"></rect>
                <rect id="Rectangle" fill="#F2F2F2" x="48.1947861" y="40.8844358" width="37.4331551" height="1"></rect>
                <rect id="Rectangle" fill="#F2F2F2" x="58.3552139" y="36.0716016" width="1" height="4.94652406"></rect>
                <rect id="Rectangle" fill="#F2F2F2" x="74.6653743" y="36.0716016" width="1" height="4.94652406"></rect>
            </g>
        </g>
    </g>
</svg>
