
<svg width="483px" height="352px" viewBox="0 0 483 352" version="1.1" xmlns="http://www.w3.org/2000/svg" xmlns:xlink="http://www.w3.org/1999/xlink">
    <defs>
        <linearGradient x1="49.9924847%" y1="99.9955009%" x2="49.9924847%" y2="-0.00221625721%" id="linearGradient-1">
            <stop stop-color="#808080" stop-opacity="0.25" offset="0%"></stop>
            <stop stop-color="#808080" stop-opacity="0.12" offset="54%"></stop>
            <stop stop-color="#808080" stop-opacity="0.1" offset="100%"></stop>
        </linearGradient>
    </defs>
    <g id="Page-1" stroke="none" stroke-width="1" fill="none" fill-rule="evenodd">
        <g id="Desktop-HD" transform="translate(-771.000000, -1480.000000)">
            <g id="undraw_revenue_3osh" transform="translate(771.000000, 1480.000000)">
                <path d="M483,106.822632 C483,106.822632 476.296097,104.083703 454.9695,113.902253 C433.642902,123.720802 430.979828,122.486293 425.455601,120.981874 C419.931374,119.477454 416.858935,119.119048 410.929745,110.906688 C410.929745,110.906688 406.756863,88.1634055 402.716034,84.6368692 C398.675204,81.110333 381.508284,86.6457117 381.508284,86.6457117 C381.508284,86.6457117 360.929988,91.3934825 357.008006,63.756412 C357.008006,63.756412 359.789928,42.9113529 356,36.5175702 C356,36.5175702 363.650284,39.8317177 376.274574,34.4777543 C388.898863,29.123791 399.009739,40.2299464 399.009739,40.2299464 C399.009739,40.2299464 402.192222,48.5175278 401.857688,53.4555634 C401.523153,58.3935991 403.543567,60.2519996 409.565195,57.8803266 C409.565195,57.8803266 412.523187,53.650253 408.332698,46.6591273 C404.142209,39.6680015 401.153404,34.4600553 402.324276,29.0264462 C403.495148,23.592837 406.853702,16.0707397 417.655656,12.3052663 C428.457611,8.53979285 443.128726,7.8141317 450.171565,4.86723945 C457.214405,1.9203472 458.917891,0 458.917891,0 C458.917891,0 454.586545,4.36281645 464.79426,22.8671759 C475.001976,41.3715353 468.496153,49.4157547 468.496153,49.4157547 C468.496153,49.4157547 463.064363,62.4245583 439.087897,61.3626152 C439.087897,61.3626152 415.982982,62.2121697 428.580861,72.0616924 C428.580861,72.0616924 436.644912,70.4112558 448.705774,66.5572871 C460.766637,62.7033184 469.473347,78.6059171 471.634618,89.6722497 C473.795889,100.738582 483,106.822632 483,106.822632 Z" id="Path" fill="#F86B68" fill-rule="nonzero"></path>
                <path d="M450.822168,14.0309782 L450.942821,14 C451.852027,17.5403632 441.743032,31.701816 433.103417,43 L433,42.9203418 C445.190259,27.0064093 451.520231,16.7482069 450.822168,14.0309782 Z" id="Path" fill="#444053" fill-rule="nonzero"></path>
                <path d="M432.947626,43 L433,43.1448427 C426.01676,52.0811997 417.213513,62.746891 410.177898,70.6474031 C409.510126,71.4023409 408.842353,72.1923921 408.200768,73 L408,72.8376006 C408.64595,72.0256035 409.309358,71.2311631 409.985859,70.4762253 C417.021473,62.5801024 425.960021,51.936357 432.947626,43 Z" id="Path" fill="#444053" fill-rule="nonzero"></path>
                <path d="M407.855088,72 L408,72.2443152 C394.713372,88.515706 393.834843,113.782337 393.803143,114 L391,110.828345 C391.045285,110.60624 394.473362,88.3868852 407.855088,72 Z" id="Path" fill="#444053" fill-rule="nonzero"></path>
                <path d="M467,98 C467,98 451.69831,89.904048 439.775374,92.814093 C427.852439,95.7241379 401.003722,82.5547226 401.003722,82.5547226 C401.003722,82.5547226 389.607058,77.8455772 387.294115,72.4752624 C387.294115,72.4752624 379.470794,64.0689655 379.024126,59.7106447 C378.577459,55.3523238 370.966416,44.4182909 366,44" id="Path" stroke="#444053"></path>
                <path d="M465,105 C465,105 458.284078,99.9197482 459.062848,94" id="Path" stroke="#444053"></path>
                <path d="M453,112 C453,112 442.098468,108.137691 441,93" id="Path" stroke="#444053"></path>
                <path d="M436,116 C436,116 426.484794,107.26308 429.641877,92" id="Path" stroke="#444053"></path>
                <path d="M415,112 C415,112 406.649466,97.4618328 414.079179,88" id="Path" stroke="#444053"></path>
                <path d="M468,88 C468,88 460.648044,90.2578947 462.220546,94" id="Path" stroke="#444053"></path>
                <path d="M458,73 C458,73 447.254052,76.2974138 447,91" id="Path" stroke="#444053"></path>
                <path d="M443,70 C443,70 433.331699,82.0493135 434.036771,93" id="Path" stroke="#444053"></path>
                <path d="M427,75 C427,75 417.939483,84.6392229 419.103219,90" id="Path" stroke="#444053"></path>
                <path d="M420,71.4972475 C420,71.4972475 411.227468,73.3288802 410,70" id="Path" stroke="#444053"></path>
                <path d="M409,61 C409,61 413.767692,67.1809643 415,65.7983802" id="Path" stroke="#444053"></path>
                <path d="M455,57.8053926 C455,57.8053926 432.16664,59.6469675 427,52" id="Path" stroke="#444053"></path>
                <path d="M405,29 C405,29 415.429907,52.0627243 423,55" id="Path" stroke="#444053"></path>
                <path d="M415,19 C415,19 421.699248,40.339719 430,47" id="Path" stroke="#444053"></path>
                <path d="M464,39.0998742 C464,39.0998742 446.506139,47.9413659 436,39" id="Path" stroke="#444053" stroke-width="0.75"></path>
                <path d="M431,15 C431,15 434.835714,30.3064035 440,34" id="Path" stroke="#444053" stroke-width="0.75"></path>
                <path d="M461,22 C461,22 451.545455,25.8085349 448,22.9144142" id="Path" stroke="#444053" stroke-width="0.75"></path>
                <path d="M401,65 C401,65 400.971223,79.0064103 397,80" id="Path" stroke="#444053"></path>
                <path d="M370,82.926852 C370,82.926852 384.37231,84.1055349 391,77" id="Path" stroke="#444053"></path>
                <path d="M397,50 C397,50 393.542553,64.1696293 384,68" id="Path" stroke="#444053"></path>
                <path d="M362,68.3328429 C362,68.3328429 372.215664,71.7807652 381,63" id="Path" stroke="#444053"></path>
                <path d="M385,38 C385,38 384.064126,50.262151 378,56" id="Path" stroke="#444053"></path>
                <path d="M362,50.9999021 C362,50.9999021 370.095833,51.0628033 372,48" id="Path" stroke="#444053"></path>
                <path d="M83,328.037584 C83,328.037584 89.0271698,324.291433 95,326.958112 C95,326.958112 93.1615094,330.294661 85.5992453,329.978926 L83,328.037584 Z" id="Path" fill="#F86B68" fill-rule="nonzero"></path>
                <path d="M82.4143071,329 C82.4143071,329 80.3111192,335.563489 85.5820716,340 C85.5820716,340 88.7550292,337.299884 85.6080369,330.689695 L82.4143071,329 Z" id="Path" fill="#F86B68" fill-rule="nonzero"></path>
                <path d="M76,321.824632 C76,321.824632 76.4575149,316.626815 90,318.350177 C90,318.350177 90.0640081,321.701818 85.3058531,323.29048 C80.5476981,324.879142 78.3745023,323.54007 76,321.824632 Z" id="Path" fill="#F86B68" fill-rule="nonzero"></path>
                <path d="M74.4561169,322 C74.4561169,322 69.3228066,323.76156 73.8985049,336 C73.8985049,336 77.2851776,335.189682 77.8837905,330.323372 C78.4824034,325.457062 76.6824647,323.770368 74.4561169,322 Z" id="Path" fill="#F86B68" fill-rule="nonzero"></path>
                <path d="M67.0077463,313.689623 C67.0077463,313.689623 66.240429,304.083082 79.9794965,305.071336 C79.9794965,305.071336 80.9556695,313.7653 69.436828,316 L67.0077463,313.689623 Z" id="Path" fill="#F86B68" fill-rule="nonzero"></path>
                <path d="M59,303.362602 C59,303.362602 60.8057571,292.320754 74,295.612986 C74,295.612986 74.0523374,305.160007 61.1503339,306 L59,303.362602 Z" id="Path" fill="#F86B68" fill-rule="nonzero"></path>
                <path d="M52,292.037831 C52,292.037831 55.2231853,281.397733 69,284.601347 C69,284.601347 65.7169556,294.145355 52.9163055,293.998318 L52,292.037831 Z" id="Path" fill="#F86B68" fill-rule="nonzero"></path>
                <path d="M46,281.119497 C46,281.119497 49.0414334,270.379951 62,273.603553 C62,273.603553 57.6730123,283.808728 46.8510638,282.948522 L46,281.119497 Z" id="Path" fill="#F86B68" fill-rule="nonzero"></path>
                <path d="M42,271.021211 C42,271.021211 44.2695652,257.426028 56,260.434687 C56,260.434687 52.5913043,272.802121 42.8652174,273 L42,271.021211 Z" id="Path" fill="#F86B68" fill-rule="nonzero"></path>
                <path d="M38,258.07914 C38,258.07914 40.8041145,244.856158 53,248.701107 C53,248.701107 48.2101968,261.199364 38.8497317,259.906142 L38,258.07914 Z" id="Path" fill="#F86B68" fill-rule="nonzero"></path>
                <path d="M36,247.267491 C36,247.267491 40.4818035,233.636254 50,234.007446 C50,234.007446 45.4144928,248.403428 36.7935588,250 L36,247.267491 Z" id="Path" fill="#F86B68" fill-rule="nonzero"></path>
                <path d="M34,235.408296 C34,235.408296 38.6371429,218.784236 46,220.071027 C46,220.071027 42.79,232.75769 34.2614286,238 L34,235.408296 Z" id="Path" fill="#F86B68" fill-rule="nonzero"></path>
                <path d="M33,222.393657 C33,222.393657 37.4928071,208.54367 45,208 C45,208 41.9413501,221.627989 33.1682036,226 L33,222.393657 Z" id="Path" fill="#F86B68" fill-rule="nonzero"></path>
                <path d="M33,208.788546 C33,208.788546 38.3059514,195.303965 43,195 C43,195 40.699078,208.277533 33.4694049,211 L33,208.788546 Z" id="Path" fill="#F86B68" fill-rule="nonzero"></path>
                <path d="M32,196.904366 C32,196.904366 35.2757895,182.219335 40,181 C40,181 39.3557895,193.007796 32.4842105,198 L32,196.904366 Z" id="Path" fill="#F86B68" fill-rule="nonzero"></path>
                <path d="M31,182.027297 C31,182.027297 34.3213457,169.856216 38,168 C38,168 37.2732019,182.348919 31.8526682,185 L31,182.027297 Z" id="Path" fill="#F86B68" fill-rule="nonzero"></path>
                <path d="M28.7802401,172.401092 L28,152 C28,152 36.0010074,167.400182 29.3713311,176 L28.7802401,172.401092 Z" id="Path" fill="#F86B68" fill-rule="nonzero"></path>
                <path d="M23.2603813,150.652174 C23.2603813,150.652174 18.2123541,135.821739 17,135 C17,135 26.9015812,144.621739 25.9333531,157 L23.2603813,150.652174 Z" id="Path" fill="#F86B68" fill-rule="nonzero"></path>
                <path d="M66.9020383,314.029732 C66.9020383,314.029732 57.7325358,312.813136 58.0059972,325.944575 C58.0059972,325.944575 66.2952958,327.312704 69,316.454264 L66.9020383,314.029732 Z" id="Path" fill="#F86B68" fill-rule="nonzero"></path>
                <path d="M57.8846656,302 C57.8846656,302 47.1784834,301.95956 48.0505192,315.929626 C48.0505192,315.929626 57.0342149,317.601181 60,304.651123 L57.8846656,302 Z" id="Path" fill="#F86B68" fill-rule="nonzero"></path>
                <path d="M52.079414,292.876599 C52.079414,292.876599 41.6661527,288.263529 35,300.202207 C35,300.202207 44.6222051,304.060331 53,294.807856 L52.079414,292.876599 Z" id="Path" fill="#F86B68" fill-rule="nonzero"></path>
                <path d="M45.160821,280.966791 C45.160821,280.966791 34.9802546,276.352766 29,287.284393 C29,287.284393 39.6001559,290.675127 46,282.694998 L45.160821,280.966791 Z" id="Path" fill="#F86B68" fill-rule="nonzero"></path>
                <path d="M41.55121,270.966221 C41.55121,270.966221 31.7922268,261.974745 24,271.068012 C24,271.068012 33.9745783,278.464773 42,272.968097 L41.55121,270.966221 Z" id="Path" fill="#F86B68" fill-rule="nonzero"></path>
                <path d="M38.6504425,257.850985 C38.6504425,257.850985 28.7743363,248.917777 21,258.263034 C21,258.263034 32.0884956,265.589253 39,259.725805 L38.6504425,257.850985 Z" id="Path" fill="#F86B68" fill-rule="nonzero"></path>
                <path d="M37,246.049261 C37,246.049261 29.1947115,233.642766 20,236.399765 C20,236.399765 28.1004274,249.569029 36.9137286,248.98087 L37,246.049261 Z" id="Path" fill="#F86B68" fill-rule="nonzero"></path>
                <path d="M34.8067916,235.349565 C34.8067916,235.349565 27.1882319,219.581096 20,222.319416 C20,222.319416 25.4844848,234.438333 35,238 L34.8067916,235.349565 Z" id="Path" fill="#F86B68" fill-rule="nonzero"></path>
                <path d="M34.2359923,221.561794 C34.2359923,221.561794 26.3706873,209.669856 19,211.123118 C19,211.123118 25.4300304,223.178992 35,225 L34.2359923,221.561794 Z" id="Path" fill="#F86B68" fill-rule="nonzero"></path>
                <path d="M33,208.714931 C33,208.714931 26.928,195.117415 22,195 C22,195 24.9172,208.502681 32.604,211 L33,208.714931 Z" id="Path" fill="#F86B68" fill-rule="nonzero"></path>
                <path d="M32,196.786101 C32,196.786101 25.1473214,183.027076 20,183 C20,183 23.5089286,194.76444 31.7678571,198 L32,196.786101 Z" id="Path" fill="#F86B68" fill-rule="nonzero"></path>
                <path d="M31,182.923254 C31,182.923254 26.08,171.31532 22,170 C22,170 24.46,184.146594 30.4514286,186 L31,182.923254 Z" id="Path" fill="#F86B68" fill-rule="nonzero"></path>
                <path d="M28.3545424,170.797077 L17,154 C17,154 19.9060905,170.569218 30,174 L28.3545424,170.797077 Z" id="Path" fill="#F86B68" fill-rule="nonzero"></path>
                <path d="M20.5482456,152.558832 C20.5482456,152.558832 7.47368421,143.455323 7,142 C7,142 13.6710526,154.752875 26,157 L20.5482456,152.558832 Z" id="Path" fill="#F86B68" fill-rule="nonzero"></path>
                <path d="M18.6572277,149 C18.6572277,149 3.80520667,133.986319 0,134 C0,134 12.2486869,134.588692 19,148.2014 L18.6572277,149 Z" id="Path" fill="#F86B68" fill-rule="nonzero"></path>
                <path d="M31,184.928445 L30.4577007,185 C27.6681128,162.482641 23.5986985,149.177945 19,147.532188 L19.1822126,147 C24.0585683,148.744145 28.1279826,161.86101 31,184.928445 Z" id="Path" fill="#444053" fill-rule="nonzero"></path>
                <path d="M35,237.929186 L34.1477788,238 C33.9664551,235.919852 33.8304624,233.79102 33.7352675,231.671039 C32.9238441,213.224109 31.6591115,196.290818 30,183.593063 L30.494107,183 C32.1577516,195.715458 33.7760653,213.166573 34.5738894,231.631206 C34.6872167,233.742335 34.8096102,235.85789 35,237.929186 Z" id="Path" fill="#444053" fill-rule="nonzero"></path>
                <path d="M99.5256628,339 C99.3779917,338.933261 84.5392908,332.34838 69.1322802,316.629201 C60.111219,307.428724 52.6124263,296.865918 46.9145027,285.333218 C39.7949692,270.926566 35.4543359,253.214125 34,236 L34.8949759,236.40933 C38.166113,275.046566 55.8553122,301.461728 69.9243339,315.828337 C85.1791986,331.400691 99.852329,337.927732 100,337.990022 L99.5256628,339 Z" id="Path" fill="#444053" fill-rule="nonzero"></path>
                <path d="M443,59.0931675 L443,326.578505 C443,334.538852 435.331214,341 425.859048,341 L63.1365317,341 C53.6687858,341 46,334.530007 46,326.578505 L46,59.0931675 C46,51.1328208 53.6687858,43 63.1365317,43 L425.841368,43.884483 C435.309114,43.8800605 443,51.123976 443,59.0931675 Z" id="Path" fill="#E8EAF2" fill-rule="nonzero"></path>
                <path d="M443,58.4245029 L443,71 L46,71 L46,58.4245029 C46,49.3535035 53.2369234,42 62.1641208,42 L426.818199,42 C431.107894,41.9964306 435.223163,43.7251421 438.258094,46.8055913 C441.293025,49.8860404 443,54.065707 443,58.4245029 Z" id="Path" fill="#65617D" fill-rule="nonzero"></path>
                <circle id="Oval" fill="#FA5959" fill-rule="nonzero" opacity="0.8" cx="64.5" cy="56.5" r="5.5"></circle>
                <circle id="Oval" fill="#FED253" fill-rule="nonzero" opacity="0.8" cx="81.5" cy="56.5" r="5.5"></circle>
                <circle id="Oval" fill="#8CCF4D" fill-rule="nonzero" opacity="0.8" cx="97.5" cy="56.5" r="5.5"></circle>
                <path d="M433.996885,335.082376 L424.403308,321.158667 C424.403308,321.158667 424.223126,317.711855 423.594688,316.906279 C422.966249,316.100702 423.462847,314.304663 423.462847,314.304663 C423.462847,314.304663 424.135233,313.318602 423.550741,313.23056 C422.966249,313.142519 423.462847,310.945892 423.462847,310.945892 L423.414506,307.450658 C423.414506,307.450658 423.955051,304.091888 423.506794,303.286311 C423.239799,302.842128 423.256988,302.282543 423.550741,301.855643 C423.550741,301.855643 424.086891,299.927541 423.550741,299.434511 C423.01459,298.94148 423.146431,295.939277 423.282666,293.566567 C423.418901,291.193858 422.342205,289.85123 422.342205,289.490262 C422.342205,289.129293 418.800096,285.638461 418.800096,285.325915 C418.800096,285.013369 416.558812,283.71036 415.214041,283.353793 C413.86927,282.997226 413.196885,282.728701 413.240832,282.548216 C413.284778,282.367732 411.135782,281.667805 411.135782,281.667805 C411.135782,281.667805 409.250466,281.535743 408.534134,280.593703 C407.817802,279.651662 405.624859,279.383137 405.563333,279.374332 C405.501808,279.365528 405.53257,279.246673 405.519386,279.185044 L405.479834,278.982549 C405.646832,278.700818 405.80504,278.40588 405.94567,278.102138 L406.073116,277.82921 C406.858595,277.831831 407.625819,277.592054 408.270453,277.142489 C408.908599,276.605387 409.296681,275.82792 409.342754,274.994285 C409.381555,274.166698 409.201131,273.343555 408.819788,272.608369 C408.424267,271.798391 407.848565,270.966402 408.046325,270.090392 C408.134218,269.711815 408.358347,269.381661 408.485792,269.011888 C408.657709,268.289718 408.542673,267.528887 408.164981,266.890096 C407.822196,266.238591 407.351966,265.666324 406.974024,265.03683 C406.48936,264.226527 406.166937,263.329405 406.024774,262.395595 C405.995883,261.903088 405.878262,261.419881 405.677595,260.969328 C405.473521,260.651852 405.205604,260.380486 404.890948,260.172556 C403.484418,259.165014 401.784952,258.651223 400.056804,258.711072 C398.835085,258.750691 397.617759,259.080845 396.404829,258.931175 C395.681171,258.806065 394.969557,258.619026 394.277806,258.372114 C392.774827,257.931908 391.03893,257.74262 389.729317,258.605423 C388.419703,259.468226 387.901131,261.163019 387.013407,262.488038 C386.22676,263.663388 385.07975,264.645046 384.482074,265.886427 C384.482074,265.864416 384.482074,265.838004 384.482074,265.815994 C384.336378,266.104432 384.224308,266.408709 384.148078,266.722818 C383.983338,267.71379 384.051043,268.729566 384.345839,269.689805 C384.414841,270.205132 384.673433,270.676088 385.07096,271.010422 C385.510428,271.292154 386.121288,271.226123 386.63986,271.318566 C386.63986,271.402205 386.595913,271.485845 386.578334,271.573886 C385.466526,276.807623 388.561775,282.017219 393.684525,283.534277 C393.684525,283.62672 393.684525,283.719164 393.684525,283.807205 C393.684496,284.064751 393.668351,284.322042 393.636183,284.577565 L393.636183,284.577565 C393.636183,284.577565 389.131641,283.648731 387.923105,284.278225 C386.714569,284.907719 384.337049,285.396348 383.967897,285.757317 C383.598744,286.118285 382.711019,285.845358 381.902399,287.958346 C381.093779,290.071333 381.023464,292.215136 379.977531,293.201197 C378.931598,294.187258 378.408632,294.85637 378.364685,295.573906 C378.320738,296.291441 378.496525,296.454317 378.092215,296.692029 C377.687905,296.92974 377.107808,297.858574 377.28799,298.215141 C377.413804,298.722695 377.218973,299.255895 376.795786,299.56217 C376.36911,299.861111 376.130501,300.362531 376.167347,300.882788 C376.167347,300.882788 375.899272,301.868849 375.288412,302.093354 C374.677552,302.317859 374.255663,303.792548 374.255663,303.792548 L372.225323,306.134443 L368.195406,301.670756 C367.565203,300.976341 366.493725,300.921301 365.795913,301.547499 L363.818309,303.308322 C363.056103,303.494486 362.367197,303.905457 361.840704,304.488073 C361.409792,304.931798 361.06153,305.449105 360.81235,306.015587 L359.73126,306.992844 C359.033192,307.859029 358.923961,309.060852 359.454396,310.039068 L362.03407,312.896004 L362.03407,312.922416 C361.132305,313.024468 360.281491,313.393875 359.590631,313.983312 C355.7365,317.386103 355.688158,320.52477 356.27265,321.955439 C356.857142,323.386108 361.739627,328.901887 361.739627,328.901887 C361.739627,328.901887 364.578587,332.595213 368.674425,334.562933 L368.674425,334.562933 L368.643662,334.593748 C368.564558,334.681789 368.481059,334.774232 368.401955,334.875479 L368.336035,334.959119 C368.317012,334.98948 368.296478,335.018864 368.27451,335.04716 L368.204195,335.152809 L368.147064,335.24085 L368.06796,335.372912 L368.019619,335.456551 L367.92733,335.632633 C367.92733,335.632633 367.905357,335.66785 367.896568,335.68986 C367.887778,335.711871 367.821858,335.848334 367.786701,335.931973 C367.773071,335.962024 367.761329,335.992899 367.751543,336.024417 C367.725175,336.081643 367.703202,336.143272 367.681229,336.200499 L367.641676,336.319355 C367.641676,336.376581 367.602124,336.433808 367.584546,336.491035 L367.544994,336.618694 L367.492257,336.816787 C367.492257,336.856406 367.470284,336.896024 367.4571,336.935643 C367.443916,336.975261 367.408759,337.146941 367.386785,337.256993 C367.38197,337.299941 367.374632,337.342568 367.364812,337.384653 L367.32526,337.617962 C367.32526,337.670786 367.32526,337.723611 367.303286,337.780838 L367.276918,338.000941 C367.276918,338.058167 367.276918,338.115394 367.276918,338.172621 C367.276918,338.229848 367.276918,338.339899 367.276918,338.42794 L367.276918,338.586414 C367.276918,338.72728 367.276918,338.868146 367.276918,339.02662 C367.18463,344.269471 367.492257,345.031027 367.492257,345.031027 C367.896607,346.019193 368.809578,346.705494 369.869777,346.818263 C370.126781,346.837053 370.385121,346.823745 370.638845,346.778644 C372.968023,346.373655 378.435,345.431615 380.364263,345.792583 C381.524457,346.008284 383.669059,345.686934 385.198406,345.4008 L385.602716,345.321563 L385.883975,346.201975 L386.76291,345.959861 L387.518795,346.400067 C387.716555,346.518923 387.879158,346.611366 387.99342,346.672995 C388.872355,349.6796 392.4672,348.653921 392.4672,348.653921 L393.319767,349.146951 L401.968488,349.371456 C402.943852,349.960384 403.974136,350.452802 405.044761,350.841744 C405.188452,350.885658 405.335406,350.918042 405.484229,350.938589 C406.286866,351.001299 407.092522,351.015999 407.896906,350.98261 C408.560502,350.98261 409.070284,350.938589 409.070284,350.938589 C409.070284,350.938589 408.982391,348.583488 408.85934,345.951057 C411.540121,345.88527 414.214968,345.666278 416.870834,345.295151 C421.489638,344.48077 423.418901,340.272403 424.126443,338.022951 C424.335532,338.942274 424.482355,339.8747 424.565911,340.813856 C424.755494,341.634693 424.994712,342.443228 425.282243,343.234988 C425.535591,343.871345 425.867796,344.473276 426.271045,345.026625 C429.676919,343.86008 427.615816,342.112463 426.899484,341.350907 C426.183152,340.589351 427.391687,339.964259 427.391687,339.964259 C427.391687,339.964259 428.332148,339.334764 428.244255,338.753693 C428.156361,338.172621 428.10802,337.543127 431.157925,337.591549 C434.207829,337.639972 433.996885,335.082376 433.996885,335.082376 Z M386.661833,306.468999 C386.701385,306.728721 387.127669,309.484409 387.510005,310.210749 C387.620277,310.695515 387.65438,311.194544 387.611083,311.68984 C385.804871,311.544572 383.92395,311.465335 383.92395,311.465335 C383.97824,311.531973 384.011852,311.613083 384.020633,311.698644 L383.739374,311.632613 L383.326274,311.531366 L386.653044,306.464597 L386.661833,306.468999 Z M380.069819,316.976712 L383.198828,317.469742 L383.458114,317.513763 C383.370925,318.002592 383.316602,318.496734 383.295511,318.992854 C383.295511,319.036875 383.370221,319.094102 383.466904,319.160132 C383.424813,319.404316 383.405686,319.651916 383.409773,319.899678 C383.458114,320.146193 384.921541,320.683245 386.595913,321.127852 C386.573939,321.220296 386.551966,321.303935 386.525598,321.383172 L386.525598,321.383172 C385.044592,320.604008 382.715414,320.238637 382.447339,319.661967 C382.179264,319.085298 374.242479,316.316403 374.242479,316.316403 C374.242479,316.316403 373.952431,316.162331 373.451438,315.920218 L375.543303,316.316403 L376.114611,316.259176 C377.415955,316.586667 378.73713,316.829289 380.069819,316.985516 L380.069819,316.976712 Z" id="Shape" fill="url(#linearGradient-1)" fill-rule="nonzero"></path>
                <path d="M423.96926,337.239618 C423.96926,337.239618 422.714607,344.942676 416.348243,346.078528 C409.98188,347.214379 388.741455,346.979997 388.741455,346.979997 C388.741455,346.979997 376.59837,345.177058 372.20487,334.765083 C367.811369,324.353109 364.991726,320.188319 368.755684,320.003518 C372.519641,319.818716 392.820184,326.976385 393.986169,327.066532 C395.152153,327.156679 425.09091,311.223203 423.96926,337.239618 Z" id="Path" fill="#65617D" fill-rule="nonzero"></path>
                <path d="M423.96926,337.239618 C423.96926,337.239618 422.714607,344.942676 416.348243,346.078528 C409.98188,347.214379 388.741455,346.979997 388.741455,346.979997 C388.741455,346.979997 376.59837,345.177058 372.20487,334.765083 C367.811369,324.353109 364.991726,320.188319 368.755684,320.003518 C372.519641,319.818716 392.820184,326.976385 393.986169,327.066532 C395.152153,327.156679 425.09091,311.223203 423.96926,337.239618 Z" id="Path" fill="#000000" fill-rule="nonzero" opacity="0.05"></path>
                <path d="M367.204076,345.25264 C367.597811,346.215182 368.47766,346.882284 369.497932,346.991843 C369.74536,347.010405 369.994103,346.997257 370.2383,346.952711 C372.48936,346.557042 377.766084,345.648309 379.627703,345.987454 C380.744673,346.196158 382.815991,345.883101 384.288167,345.600481 C385.268191,345.413517 386,345.239596 386,345.239596 C386,345.239596 384.266769,339.391528 384.05279,339.217608 C383.838811,339.043687 376.263951,334.434801 376.263951,334.434801 L370.272536,334 L370.272536,334 C369.466824,334.12436 368.739015,334.558688 368.239735,335.213094 C367.606357,335.991387 367.06285,337.269701 367.028613,339.361092 C366.908785,344.504783 367.204076,345.25264 367.204076,345.25264 Z" id="Path" fill="#3F3D56" fill-rule="nonzero"></path>
                <path d="M366.256344,345.261451 C366.739413,346.223631 367.81889,346.890483 369.070649,347 C368.348186,346.229501 367.681929,345.42399 367.075433,344.587763 L367.112187,340.328318 C366.807715,337.959118 367.8793,335.61086 370,334 L370,334 C370,334 366.12508,334.217319 366.020069,339.359077 C365.915057,344.500836 366.256344,345.261451 366.256344,345.261451 Z" id="Path" fill="#000000" fill-rule="nonzero" opacity="0.05"></path>
                <path d="M394.537872,336 L400.146692,331.340939 L409,322.114081 C409,322.114081 408.0465,322.063885 406.601151,322 C406.243049,322.241851 405.237776,323.003911 405.198945,323.925684 C405.155801,325.052803 402.808725,324.003259 401.587728,324.651239 C400.366731,325.299218 394.391179,333.385267 393.342761,333.321382 C392.294343,333.257497 391.465964,332.760104 391.030201,333.54498 L391,333.595176 L394.537872,336 Z" id="Path" fill="#000000" fill-rule="nonzero" opacity="0.1"></path>
                <path d="M369,335.241379 L369.615311,335.533733 C373.905152,337.44078 379.204622,341.443778 379.581608,342.172414 C379.824266,342.622189 382.896485,344.547226 385.266731,346 C386.259027,345.806597 387,345.626687 387,345.626687 C387,345.626687 385.245065,339.577211 385.028406,339.397301 C384.811748,339.217391 377.142032,334.449775 377.142032,334.449775 L371.07559,334 L371.07559,334 C370.255504,334.120833 369.511983,334.565522 369,335.241379 L369,335.241379 Z" id="Path" fill="#000000" fill-rule="nonzero" opacity="0.1"></path>
                <path d="M355.279607,322.099778 C355.865389,323.535987 360.755782,329.067394 360.755782,329.067394 C360.755782,329.067394 363.862203,333.109233 368.246693,334.998982 C372.631184,336.888731 378.071857,340.841642 378.475692,341.561969 C378.733081,342.006616 382.238899,344.136474 384.688533,345.59047 L385.243251,345.915062 L386.468068,346.626497 L387.115979,347 L390.111456,344.576675 C391.589224,343.376128 393.058117,342.166689 393.080306,342.099992 C393.124684,341.966598 393.710466,340.437013 393.572896,340.348084 C393.50633,340.299172 393.195687,339.681113 392.627656,338.956339 C392.026709,338.153243 391.243207,337.505392 390.342218,337.06659 C389.032866,336.394044 387.989508,335.296913 387.382243,333.954062 C387.382243,333.954062 387.186983,333.811775 386.889654,333.625024 C386.277882,333.204933 385.593029,332.903307 384.870481,332.73573 C383.885302,332.611229 382.048076,330.588086 382.048076,330.588086 C381.329056,330.119158 380.728904,329.488901 380.295167,328.747248 C379.824766,327.760132 372.866384,322.96684 372.222911,322.522193 L389.086337,333.376022 L393.120246,335.972759 L398.889312,331.432915 L408,322.446603 C408,322.446603 406.775183,322.384352 404.99121,322.308762 C400.553466,322.117564 392.707536,321.815204 391.713481,322.041974 C390.905179,322.229416 390.071773,322.283484 389.246096,322.202047 C389.246096,322.202047 387.027224,322.304316 385.522829,321.517291 C384.018434,320.730266 381.710807,320.370102 381.440105,319.787615 C381.169402,319.205127 373.230279,316.421638 373.230279,316.421638 C373.230279,316.421638 362.419936,310.667909 358.559099,314.082796 C354.698262,317.497684 354.698262,320.659123 355.279607,322.099778 Z" id="Path" fill="#65617D" fill-rule="nonzero"></path>
                <path d="M390,289.41464 L391.433913,294.068788 L393.26639,304.552916 L400.074041,305 L402.043954,301.812289 L404.009285,298.629048 C404.009285,298.629048 405.237045,294.390689 406.116634,290.295397 C406.895436,286.665072 407.403949,283.142047 406.574753,282.766497 C405.823437,282.426713 405.328669,281.206172 405.007985,279.891744 C404.966754,279.730794 404.930105,279.565373 404.898037,279.399952 C404.668228,278.287547 404.515178,277.161344 404.439917,276.028936 C404.439917,276.028936 390.174085,275.30913 392.166904,281.049693 C392.522974,282.02866 392.704271,283.059997 392.702903,284.098808 C392.702001,284.358733 392.686708,284.61842 392.657091,284.876735 C392.459841,286.685191 391.496368,288.330655 390,289.41464 L390,289.41464 Z" id="Path" fill="#EE8E9E" fill-rule="nonzero"></path>
                <path d="M388,288.733437 L388.486436,296.614641 L389.595159,303.324135 L390.835351,306.442757 L391.944073,323.44816 C391.944073,323.44816 402.623748,324.70452 405.222454,323.425884 C405.408229,323.344923 405.569898,323.215895 405.691361,323.05165 C408.811561,318.22224 407.803631,304.290908 407.803631,304.290908 L409,295.286999 L408.202421,290.609065 L406.274207,290.404127 L404.788606,290.239286 C404.788606,290.239286 404.455551,290.658072 403.973497,291.308528 C402.658806,293.090598 400.244157,296.538903 400.406302,297.99129 C400.625417,299.973843 400.138982,302.000948 399.385225,302.317265 C398.631469,302.633583 398.013564,303.172659 397.877713,302.629127 C397.692846,302.173732 397.647038,301.672324 397.746244,301.190106 C397.877713,300.423816 397.172162,298.071483 397.172162,298.071483 C397.172162,298.071483 395.975793,295.327096 396.063439,294.155385 C396.151085,292.983674 395.93197,291.633756 395.577003,291.317438 C395.222037,291.001121 394.735601,290.684803 395.138773,289.245782 C395.541945,287.80676 393.385851,285 393.385851,285 L388,288.733437 Z" id="Path" fill="#E3E8F4" fill-rule="nonzero"></path>
                <path d="M403.01616,308.228131 L403.403464,321.574025 L405.665316,323 C405.83,322.922856 405.973229,322.796212 406.079731,322.633573 C408.852825,317.856776 407.942661,304.034086 407.942661,304.034086 L409,295.107392 L408.295108,290.476283 L406.594845,290.268789 C407.253261,286.688398 407.683168,283.205133 406.982149,282.834292 C406.346971,282.498768 405.928683,281.293532 405.65757,280 L405.65757,280 L404.437564,289.438809 C404.437564,289.438809 404.538263,290.290862 404.57312,291.169405 C404.62485,291.724954 404.592095,292.286511 404.476295,292.829363 C404.201309,293.632854 404.398834,295.063244 404.398834,295.063244 C403.690068,296.48039 403.337622,299.107187 403.167209,301.641273 C402.92708,305.022998 403.01616,308.228131 403.01616,308.228131 Z" id="Path" fill="#000000" fill-rule="nonzero" opacity="0.1"></path>
                <path d="M405.781755,280 C405.781755,280 408.025414,280.285001 408.733707,281.229067 C409.441999,282.173133 411.316114,282.31118 411.316114,282.31118 C411.316114,282.31118 413.44979,283.028136 413.405797,283.201808 C413.361804,283.375481 414.026103,283.647122 415.363499,284.01228 C416.700896,284.377437 418.918159,285.677755 418.918159,285.993928 C418.918159,286.310101 422.437625,289.819175 422.437625,290.17988 C422.437625,290.540584 423.506662,291.889886 423.370283,294.276769 C423.233904,296.663653 423.106323,299.678429 423.638642,300.172728 C424.170961,300.667027 423.638642,302.604143 423.638642,302.604143 C423.348324,303.033954 423.331153,303.59534 423.594649,304.042507 C424.034582,304.852979 423.506662,308.22846 423.506662,308.22846 L423.550656,311.741988 C423.550656,311.741988 423.06233,313.968558 423.638642,314.035355 C424.214955,314.102152 423.550656,315.117468 423.550656,315.117468 C423.550656,315.117468 423.06233,316.898725 423.682635,317.727009 C424.302941,318.555293 424.483314,322.006477 424.483314,322.006477 L433.999068,336.007152 C433.999068,336.007152 434.135447,338.572161 431.108707,338.52763 C428.081967,338.483098 428.13036,339.110991 428.218346,339.698806 C428.306333,340.28662 427.373675,340.91006 427.373675,340.91006 C427.373675,340.91006 426.172657,341.542406 426.885349,342.308346 C427.598041,343.074286 429.64373,344.828824 426.260644,346 C425.863847,345.449238 425.535811,344.850952 425.283992,344.218744 C424.996775,343.425554 424.758748,342.614991 424.5713,341.791782 C424.5713,341.791782 424.258948,338.367317 423.638642,337.917549 C423.018336,337.467782 423.119521,335.294649 423.119521,335.294649 C423.119521,335.294649 423.999387,333.540112 422.763175,332.818703 C421.526963,332.097294 403.458908,321.970852 403.458908,321.970852 L403.018975,308.509007 C403.018975,308.509007 402.711022,298.560691 404.576338,295.229742 C404.576338,295.229742 404.356372,293.786924 404.664325,292.976452 C404.972278,292.165981 404.620332,289.55644 404.620332,289.55644 L405.781755,280 Z" id="Path" fill="#3F3D56" fill-rule="nonzero"></path>
                <path d="M393.697004,284.520677 C393.697004,284.520677 389.10302,283.589485 387.868613,284.217705 C386.634206,284.845926 384.210609,285.344937 383.844356,285.70583 C383.478103,286.066723 382.564733,285.794939 381.741795,287.933562 C380.918857,290.072184 380.837467,292.215262 379.774882,293.204375 C378.712298,294.193488 378.178744,294.870719 378.133528,295.592504 C378.088312,296.314289 378.269177,296.483596 377.857708,296.719736 C377.446239,296.955876 376.849383,297.887068 377.03477,298.24796 C377.220157,298.608853 386.530209,306.535122 386.530209,306.535122 C386.530209,306.535122 386.982372,309.555927 387.398363,310.317811 C387.814353,311.079695 386.946199,321.625778 386.041872,322.347563 C385.137544,323.069348 392.213907,322.99806 392.213907,322.99806 C392.213907,322.99806 392.534943,316.083181 392.810763,315.726744 C393.086583,315.370307 392.625376,307.978693 392.625376,307.978693 C392.625376,307.978693 392.580159,301.674212 393.172494,300.003413 C393.764828,298.332614 393.701525,292.798928 393.701525,292.798928 C393.701525,292.798928 394.226035,289.475152 394.863586,288.699902 C395.501137,287.924651 393.697004,284.520677 393.697004,284.520677 Z" id="Path" fill="#000000" fill-rule="nonzero" opacity="0.1"></path>
                <path d="M393.700943,284.522671 C393.700943,284.522671 389.101353,283.586829 387.866655,284.219636 C386.631957,284.852443 384.21231,285.347102 383.845971,285.70807 C383.479632,286.069037 382.566046,285.797198 381.742913,287.913982 C380.919781,290.030765 380.838373,292.192113 379.775537,293.185888 C378.712702,294.179662 378.1745,294.852577 378.129273,295.570055 C378.084046,296.287533 378.269477,296.461332 377.857911,296.697521 C377.446344,296.93371 376.849348,297.869551 377.034778,298.230518 C377.220209,298.591486 386.555071,306.510486 386.555071,306.510486 C386.555071,306.510486 387.007341,309.52746 387.42343,310.293959 C387.839519,311.060457 386.971159,321.599814 386.066619,322.326205 C385.162078,323.052596 392.212973,322.999119 392.212973,322.999119 C392.212973,322.999119 392.534085,316.082806 392.805448,315.721839 C393.07681,315.360871 392.624539,307.972181 392.624539,307.972181 C392.624539,307.972181 392.579312,301.666393 393.171787,299.999704 C393.764261,298.333015 393.700943,292.793726 393.700943,292.793726 C393.700943,292.793726 394.225577,289.469261 394.863278,288.693849 C395.500979,287.918438 393.700943,284.522671 393.700943,284.522671 Z" id="Path" fill="#3F3D56" fill-rule="nonzero"></path>
                <path d="M392.192183,280.736247 C392.550527,281.654448 392.732981,282.621767 392.731605,283.596096 C397.448957,284.871494 402.514031,283.051962 405,279.188909 C404.768724,278.145553 404.614697,277.089257 404.538955,276.02714 C404.538955,276.02714 390.186639,275.352014 392.192183,280.736247 Z" id="Path" fill="#000000" fill-rule="nonzero" opacity="0.1"></path>
                <path d="M386,274.012479 C386.00637,279.331446 390.175785,283.714531 395.487989,283.986694 C400.800194,284.258857 405.395756,280.324834 405.945721,275.034371 C406.495687,269.743907 402.80755,264.948825 397.552942,264.122609 C392.298333,263.296393 387.316524,266.728243 386.216262,271.93218 C386.071714,272.616157 385.999233,273.313397 386,274.012479 L386,274.012479 Z" id="Path" fill="#EE8E9E" fill-rule="nonzero"></path>
                <path d="M378.945334,299 L376.51132,299.728299 C376.629824,300.208686 376.434505,300.71017 376.016565,300.998589 C375.592401,301.289212 375.356467,301.770386 375.393705,302.268878 C375.393705,302.268878 375.124241,303.213126 374.510215,303.424841 C373.89619,303.636556 373.48095,305.055046 373.48095,305.055046 L371.426836,307.320395 C371.426836,307.320395 370.667035,307.921665 370.803976,308.222301 C370.940917,308.522936 370,308.607622 370,308.607622 L370.490337,316.229358 L374.731088,317 L377.381557,316.741708 L379.52402,315.971066 L381.397018,314.904023 L382.249586,312.786874 L386,307.307692 L378.945334,299 Z" id="Path" fill="#3F3D56" fill-rule="nonzero"></path>
                <path d="M370.809181,308.810082 C370.809181,308.810082 365.430866,301.054167 361.417849,305.239484 C357.404832,309.424801 363.049228,316.212862 364.370906,315.994876 C365.692584,315.776891 372,315.410676 372,315.410676 L370.809181,308.810082 Z" id="Path" fill="#EE8E9E" fill-rule="nonzero"></path>
                <path d="M354.092265,298.011593 L379.570001,298.023432 C380.41996,298.025259 381.108889,298.714189 381.110716,299.564148 L381.119589,318.672797 C381.121414,319.523315 380.432253,320.213117 379.581735,320.213512 C379.581258,320.213512 379.580781,320.213512 379.580305,320.212082 L354.102569,320.200242 C353.25261,320.198416 352.56368,319.509486 352.561854,318.659527 L352.552981,299.550877 C352.551156,298.700359 353.240317,298.010558 354.090835,298.010163 C354.091312,298.010163 354.091789,298.010163 354.092265,298.011593 Z" id="Rectangle" fill="#3F3D56" fill-rule="nonzero" transform="translate(366.836285, 309.111837) rotate(27.040000) translate(-366.836285, -309.111837) "></path>
                <polygon id="Rectangle" fill="#F86B68" fill-rule="nonzero" transform="translate(366.873995, 309.085599) rotate(27.040000) translate(-366.873995, -309.085599) " points="354.867138 300.028806 378.872447 300.039961 378.880853 318.142393 354.875544 318.131237"></polygon>
                <circle id="Oval" fill="#E6E8EC" fill-rule="nonzero" cx="355.5" cy="303.5" r="1"></circle>
                <circle id="Oval" fill="#E6E8EC" fill-rule="nonzero" cx="378.5" cy="315.5" r="1"></circle>
                <path d="M367,310.863014 C366.953936,316.969184 379.697496,318.259027 379.697496,318.259027 L382.93073,318.771304 L384.390304,319 L385,313.053917 C385,313.053917 384.330259,312.957865 383.494237,312.76576 C382.260989,312.477604 380.662848,311.988196 380.330287,311.297535 C379.789875,310.131188 367.046314,304.761418 367,310.863014 Z" id="Path" fill="#EE8E9E" fill-rule="nonzero"></path>
                <path d="M386,271.972275 C386.277199,271.992375 386.538369,272.109904 386.737337,272.304084 C387.082009,272.666454 387.09946,273.303876 387.540117,273.526537 C387.705458,273.601343 387.88999,273.622709 388.068033,273.58766 C389.241663,273.421756 389.917918,272.098886 391.043557,271.73215 C391.70294,271.567257 392.39845,271.627176 393.019968,271.902421 C393.272304,271.986086 393.49706,272.137032 393.670045,272.339011 C394.049621,272.827992 393.783482,273.548367 393.957999,274.137764 C394.202324,274.958554 395.179622,275.281631 396.026032,275.390779 C396.872442,275.499926 397.827925,275.556683 398.390744,276.194105 C398.773644,276.676107 398.932411,277.298895 398.827038,277.90554 C398.776892,278.1121 398.776892,278.327671 398.827038,278.534231 C399.062637,279.197848 400.205727,279.097432 400.506769,278.57789 C400.724916,278.198056 400.655109,277.879345 401.169936,277.774563 C401.54065,277.744944 401.912834,277.80952 402.251945,277.962297 C403.148851,278.27485 404.09479,278.422753 405.044225,278.398888 C406.693584,274.87953 406.179837,270.725489 403.722865,267.714668 C401.265892,264.703848 397.301126,263.369834 393.525461,264.283576 C389.749797,265.197319 386.832367,268.196882 386.021815,271.99847 L386,271.972275 Z" id="Path" fill="#000000" fill-rule="nonzero" opacity="0.1"></path>
                <path d="M399.399292,278.541252 C399.348757,278.334761 399.348757,278.119375 399.399292,277.912884 C399.504681,277.312114 399.344796,276.695557 398.959896,276.218457 C398.393075,275.581422 397.430797,275.520752 396.578369,275.416746 C395.725941,275.31274 394.741693,274.983389 394.495632,274.173011 C394.319873,273.587978 394.587905,272.872939 394.20563,272.391912 C394.033937,272.188651 393.806712,272.038247 393.55093,271.958555 C392.926484,271.679671 392.224053,271.620028 391.560466,271.789545 C390.426824,272.149232 389.74576,273.466638 388.563785,273.631314 C388.384323,273.661568 388.199831,273.640515 388.032116,273.570644 C387.592719,273.349632 387.566356,272.703929 387.223627,272.35291 C386.687564,271.789545 385.663771,272.153565 385.000283,271.737542 C384.604066,271.408599 384.348292,270.944317 384.284067,270.437471 C383.991427,269.497734 383.923745,268.503868 384.086339,267.533976 C384.473007,265.904553 385.949378,264.786491 386.89408,263.395414 C387.772872,262.095342 388.264995,260.457251 389.587578,259.599204 C390.91016,258.741157 392.601835,258.936167 394.091387,259.369525 C394.777924,259.60867 395.483371,259.791305 396.200488,259.915555 C397.404434,260.062896 398.608379,259.737878 399.816718,259.698876 C401.524868,259.645058 403.203434,260.147646 404.592953,261.128955 C404.90476,261.332341 405.169733,261.598102 405.370684,261.908998 C405.570789,262.348154 405.688403,262.819487 405.717807,263.300075 C405.859409,264.206683 406.177198,265.07779 406.653721,265.865551 C407.027207,266.480918 407.497361,267.039949 407.835696,267.676984 C408.209697,268.302409 408.323108,269.04654 408.152061,269.752766 C408.037818,270.112453 407.813726,270.437471 407.712665,270.805824 C407.514937,271.672539 408.086152,272.478583 408.477214,273.267294 C408.852001,273.98855 409.03065,274.793366 408.995702,275.60309 C408.951335,276.419564 408.564508,277.181017 407.927969,277.704873 C407.268601,278.15705 406.481206,278.392145 405.678261,278.376577 C404.702998,278.406745 403.730419,278.259852 402.809005,277.943219 C402.46827,277.79405 402.095498,277.730047 401.723697,277.756876 C401.20521,277.865215 401.284301,278.190233 401.051421,278.554253 C400.787783,279.104617 399.636566,279.195622 399.399292,278.541252 Z" id="Path" fill="#3F3D56" fill-rule="nonzero"></path>
                <path d="M393.852321,336 L399.337553,331.348519 L408,322.14123 C408,322.14123 406.835443,322.077449 405.139241,322 C404.805573,322.327949 404.591557,322.773949 404.535865,323.257403 C404.493671,324.382688 402.198312,323.334852 401.004219,323.981777 C399.810127,324.628702 393.966245,332.701595 392.940928,332.637813 C391.915612,332.574032 391.105485,332.077449 390.679325,332.861048 L390.649789,332.911162 C390.479663,333.121512 390.252179,333.268246 390,333.330296 L393.852321,336 Z" id="Path" fill="#000000" fill-rule="nonzero" opacity="0.1"></path>
                <path d="M382,336.334456 L384.906344,345.550015 L385.351419,347 L386.740055,346.620977 L389.802175,345.788006 L403.439291,342.081509 C405.148494,341.995957 406.818716,341.544895 408.335123,340.759335 C410.908504,339.333036 413.851971,338.696406 416.791559,338.930326 C418.571861,339.097802 420.596955,338.326533 422.261538,335.285531 C422.261538,335.285531 426.04023,324.236556 416.50226,321.072151 C406.96429,317.907746 406.505862,322.75572 406.505862,322.75572 L406.37679,322.835051 C406.007377,323.068635 404.970351,323.804646 404.930294,324.69491 C404.885787,325.783501 402.464576,324.769833 401.205012,325.395663 C399.945448,326.021492 393.781151,333.831138 392.699617,333.769437 C391.618084,333.707735 390.763538,333.227345 390.314012,333.985392 L390.282857,334.033872 C389.94905,334.474597 388.94763,334.593592 388.284467,334.615629 C387.923956,334.615629 387.661362,334.615629 387.661362,334.615629 L387.576797,334.642072 L386.882479,334.844806 L382,336.334456 Z" id="Path" fill="#65617D" fill-rule="nonzero"></path>
                <path d="M383,318.779897 L384.410714,319 L385,313.277329 C385,313.277329 384.352679,313.184886 383.544643,313 C383.758929,313.783566 383.276786,316.87821 383,318.779897 Z" id="Path" fill="#000000" fill-rule="nonzero" opacity="0.1"></path>
                <path d="M419.679187,291.139608 C419.679187,291.139608 423.874146,289.945133 422.834332,301.640491 C421.794517,313.33585 414.038307,320.703969 414.038307,320.703969 C414.038307,320.703969 405.112863,324.549918 401.096414,323.932991 C397.079964,323.316064 394.147956,323.180427 394.147956,323.180427 C392.884404,322.553002 391.501254,322.190885 390.086879,322.117213 C387.855518,322.029706 383.093794,320.660216 383.004539,320.213928 C382.915285,319.76764 384.178235,313.270219 383.633783,312.775803 C383.633783,312.775803 389.952997,313.029574 390.582241,313.480237 C391.211485,313.9309 392.117417,313.607122 392.813602,313.480237 C393.509786,313.353351 395.562639,311.581327 399.668343,313.130207 C399.668343,313.130207 401.069637,313.261468 401.609627,312.911439 C402.051226,312.708173 402.554696,312.67537 403.019847,312.819556 C403.368703,312.703561 403.699201,312.540074 404.001646,312.33389 C404.135527,312.158876 405.219969,312.33389 405.219969,312.33389 C405.350013,312.396218 405.501875,312.397347 405.632868,312.33696 C405.763862,312.276573 405.859845,312.161188 405.89384,312.023239 C406.037192,311.661418 406.252619,311.331216 406.527546,311.051908 C406.527546,311.051908 407.745869,304.326967 410.044171,301.806755 C410.420949,301.489851 410.607566,301.006891 410.539533,300.524772 C410.338711,299.789711 414.261443,289.704488 419.679187,291.139608 Z" id="Path" fill="#000000" fill-rule="nonzero" opacity="0.1"></path>
                <path d="M419.679187,290.13639 C419.679187,290.13639 423.874146,288.941798 422.834332,300.638302 C421.794517,312.334805 414.038307,319.703646 414.038307,319.703646 C414.038307,319.703646 405.112863,323.549971 401.096413,322.932984 C397.079964,322.315997 394.147956,322.180347 394.147956,322.180347 C392.884686,321.552135 391.501377,321.189941 390.086879,321.117029 C387.855518,321.029513 383.093793,319.659888 383.004539,319.213557 C382.915285,318.767226 384.178235,312.269168 383.638246,311.774703 C383.638246,311.774703 389.952997,312.0285 390.582241,312.479207 C391.211485,312.929914 392.117417,312.606105 392.813602,312.479207 C393.509786,312.352308 395.562638,310.580111 399.668342,312.129143 C399.668342,312.129143 401.069637,312.260417 401.609627,311.905977 C402.052123,311.705397 402.55509,311.674184 403.019847,311.818461 C403.368703,311.702455 403.699201,311.538951 404.001645,311.332748 C404.135527,311.157716 405.219968,311.332748 405.219968,311.332748 C405.350013,311.395082 405.501875,311.396211 405.632868,311.335818 C405.763862,311.275424 405.859845,311.160029 405.893839,311.022066 C406.037192,310.660209 406.252619,310.329975 406.527546,310.05064 C406.527546,310.05064 407.745869,303.325041 410.044171,300.804582 C410.421208,300.487608 410.609263,300.005226 410.543996,299.522473 C410.33871,298.804843 414.265906,288.718632 419.679187,290.13639 Z" id="Path" fill="#3F3D56" fill-rule="nonzero"></path>
                <path d="M387,335.193742 L392.492464,342 L392.525353,341.962094 C392.566465,341.831528 393.105022,340.382671 392.981688,340.298436 C392.858355,340.2142 391.900462,338.083032 389.988789,337.190132 C389.01775,336.705425 388.202982,335.945261 387.641336,335 L387,335.193742 Z" id="Path" fill="#000000" fill-rule="nonzero" opacity="0.1"></path>
                <path d="M387.124118,346.640441 L387.749314,347 L390.639772,344.667144 C392.065732,343.511418 393.483127,342.34713 393.504538,342.282923 C393.54736,342.154509 394.112605,340.682028 393.979858,340.596418 C393.915625,340.549333 393.615874,339.954348 393.067758,339.256632 C389.213813,338.173673 391.663209,340.861807 391.988653,340.968819 C391.988653,340.968819 387.278276,339.88586 387.012782,345.022423 C386.977627,345.564312 387.01507,346.108467 387.124118,346.640441 L387.124118,346.640441 Z" id="Path" fill="#000000" fill-rule="nonzero" opacity="0.1"></path>
                <path d="M391.605595,349.562755 L392.446559,350.073877 L400.991972,350.304111 C401.951169,350.91717 402.964804,351.430709 404.018564,351.837476 C404.161684,351.882743 404.308216,351.915094 404.456566,351.934174 C405.249102,352.002093 406.04492,352.017473 406.839295,351.980221 C407.491918,351.980221 408,351.934174 408,351.934174 C408,351.934174 407.592658,340.606619 407.290437,339.414003 C407.141517,338.84302 406.414434,338.953533 405.722391,339.252838 C405.190988,339.479846 404.678255,339.752443 404.189385,340.06787 C404.189385,340.06787 400.558351,340.436246 399.984568,340.767784 C399.410786,341.099322 397.76828,340.578991 396.752116,340.767784 C395.735952,340.956576 393.918245,339.506097 393.918245,339.506097 C388.960065,337.78394 391.728236,340.998019 392.100537,341.13616 C392.100537,341.13616 387.282518,339.971171 387.010957,345.496808 C386.739396,351.022444 391.605595,349.562755 391.605595,349.562755 Z" id="Path" fill="#3F3D56" fill-rule="nonzero"></path>
                <path d="M404.001751,345.189551 C404.097258,347.542755 405.820716,350.458882 406.849581,352 C407.49642,352 408,351.953859 408,351.953859 C408,351.953859 407.596268,340.60311 407.296725,339.408052 C407.149124,338.8359 406.428484,338.946639 405.742574,339.246557 C404.891698,340.939941 403.953998,343.29776 404.001751,345.189551 Z" id="Path" fill="#565387" fill-rule="nonzero"></path>
                <path d="M404.001751,345.189551 C404.097258,347.542755 405.820716,350.458882 406.849581,352 C407.49642,352 408,351.953859 408,351.953859 C408,351.953859 407.596268,340.60311 407.296725,339.408052 C407.149124,338.8359 406.428484,338.946639 405.742574,339.246557 C404.891698,340.939941 403.953998,343.29776 404.001751,345.189551 Z" id="Path" fill="#000000" fill-rule="nonzero" opacity="0.1"></path>
                <path d="M402.153244,345.493412 C402.777022,347.760106 402.772367,350.298619 403.76855,351.837391 C403.920656,351.882682 404.07639,351.915049 404.234056,351.93414 C405.076359,352.002095 405.922151,352.017482 406.766409,351.980211 C407.460013,351.980211 408,351.93414 408,351.93414 C408,351.93414 407.567079,340.60067 407.24588,339.407431 C407.087608,338.83615 406.314868,338.94672 405.579368,339.246182 C405.014595,339.473308 404.469666,339.746047 403.950097,340.061639 C403.950097,340.061639 401.352573,342.590938 402.153244,345.493412 Z" id="Path" fill="#000000" fill-rule="nonzero" opacity="0.05"></path>
                <path d="M373,324 C373,324 377.330726,325.318911 381,330 L373,324 Z" id="Path" fill="#000000" fill-rule="nonzero" opacity="0.1"></path>
                <g id="Group" opacity="0.1" transform="translate(383.000000, 266.000000)" fill="#000000" fill-rule="nonzero">
                    <path d="M24.9241379,3.37133333 L24.8972414,3.46666667 C24.8549802,3.59118144 24.8040595,3.71279204 24.7448276,3.83066667 C24.791236,3.67298782 24.8512155,3.51934041 24.9241379,3.37133333 L24.9241379,3.37133333 Z" id="Path"></path>
                    <path d="M0.345172414,1.248 C0.422737866,0.947678516 0.535538006,0.65690482 0.68137931,0.381333333 C0.68137931,0.455 0.636551724,0.528666667 0.61862069,0.606666667 C0.44836257,1.5777364 0.517475535,2.57393579 0.820344828,3.51433333 C0.884135914,4.0216885 1.14540336,4.48652015 1.55103448,4.81433333 C2.22344828,5.24766667 3.26793103,4.87066667 3.81931034,5.434 C4.16896552,5.78933333 4.18689655,6.42633333 4.64413793,6.64733333 C4.814629,6.71942503 5.00353546,6.74055341 5.18655172,6.708 C6.38793103,6.54333333 7.08724138,5.226 8.2437931,4.86633333 C8.91929451,4.69678822 9.63452521,4.75644352 10.27,5.03533333 C10.5300029,5.11942647 10.7621116,5.26900764 10.9424138,5.46866667 C11.327931,5.954 11.0589655,6.66466667 11.2382759,7.254 C11.4848276,8.06433333 12.4889655,8.38933333 13.3586207,8.49333333 C14.2282759,8.59733333 15.21,8.66233333 15.7927586,9.295 C16.1818161,9.77380646 16.3445158,10.3887568 16.2410345,10.9893333 C16.1878857,11.195627 16.1878857,11.411373 16.2410345,11.6176667 C16.4786207,12.2763333 17.6531034,12.1766667 17.9624138,11.6566667 C18.1865517,11.2796667 18.1193103,10.9676667 18.6482759,10.8636667 C19.0278183,10.8321073 19.4093365,10.8963115 19.7555172,11.05 C20.6961591,11.3642495 21.6879397,11.5110675 22.6827586,11.4833333 C23.5034768,11.4953124 24.3075346,11.2589539 24.9824138,10.8073333 C25.2757243,10.5834514 25.5157562,10.3011718 25.6862069,9.97966667 C25.5352611,10.5642128 25.1923801,11.085717 24.7089655,11.466 C24.0360024,11.9176135 23.2328795,12.152642 22.4137931,12.1376667 C21.4188207,12.1678334 20.4265869,12.0209484 19.4865517,11.7043333 C19.137461,11.5548117 18.7556142,11.4908113 18.3748276,11.518 C17.8458621,11.6263333 17.9265517,11.9513333 17.6889655,12.3153333 C17.3841379,12.8353333 16.2096552,12.9306667 15.9675862,12.2763333 C15.9183251,12.0695955 15.9183251,11.8547378 15.9675862,11.648 C16.0774736,11.0471745 15.914111,10.4297184 15.5193103,9.95366667 C14.9410345,9.31666667 13.9593103,9.256 13.0896552,9.152 C12.22,9.048 11.2158621,8.71866667 10.9648276,7.90833333 C10.7855172,7.32333333 11.0589655,6.60833333 10.6689655,6.12733333 C10.4929669,5.92498095 10.2614424,5.77477491 10.0010345,5.694 C9.3639694,5.4151321 8.64734288,5.35549232 7.97034483,5.525 C6.8137931,5.88466667 6.11448276,7.202 4.91310345,7.36666667 C4.73001521,7.39691865 4.54179444,7.37586696 4.37068966,7.306 C3.92241379,7.085 3.89551724,6.43933333 3.54586207,6.08833333 C2.99448276,5.525 1.95448276,5.889 1.27758621,5.473 C0.871955079,5.14518682 0.610687638,4.68035517 0.546896552,4.173 C0.242520878,3.22692239 0.173406389,2.2247623 0.345172414,1.248 L0.345172414,1.248 Z" id="Path"></path>
                </g>
                <path d="M408.86074,303.063805 C407.973455,304.128946 406.952601,305.113136 406.184575,306.242185 C405.338226,307.344144 404.925467,308.665887 405.011069,310 C405.822028,309.258662 406.194115,308.236127 406.704543,307.307325 C407.567976,305.730917 408.85597,304.397361 409.948379,302.94877 C410.153504,302.671834 411.484431,301.074123 410.811812,301.001694 C410.253681,300.937785 409.161272,302.701658 408.86074,303.063805 Z" id="Path" fill="#000000" fill-rule="nonzero" opacity="0.1"></path>
                <path d="M126.711746,158.519481 L90.2882536,158.519481 C89.8374715,158.492764 89.4088042,158.714057 89.1752018,159.094076 C88.9415994,159.474095 88.9415994,159.950148 89.1752018,160.330166 C89.4088042,160.710185 89.8374715,160.931478 90.2882536,160.904762 L126.711746,160.904762 C127.162528,160.931478 127.591196,160.710185 127.824798,160.330166 C128.058401,159.950148 128.058401,159.474095 127.824798,159.094076 C127.591196,158.714057 127.162528,158.492764 126.711746,158.519481 L126.711746,158.519481 Z M126.711746,162.61039 L90.2882536,162.61039 C89.6171483,162.61039 89.0731099,163.145322 89.0731099,163.805195 C89.0731099,164.465067 89.6171483,165 90.2882536,165 L126.711746,165 C127.382852,165 127.92689,164.465067 127.92689,163.805195 C127.92689,163.145322 127.382852,162.61039 126.711746,162.61039 L126.711746,162.61039 Z M124.884628,135 L92.1197746,135 C90.439868,135.002377 89.0779564,136.339558 89.0731099,137.991342 L89.0731099,153.142857 C89.0779564,154.794641 90.439868,156.131822 92.1197746,156.134199 L124.884628,156.134199 C126.562816,156.129444 127.922054,154.792956 127.92689,153.142857 L127.92689,137.991342 C127.922054,136.341243 126.562816,135.004755 124.884628,135 L124.884628,135 Z M96.1834618,153.419913 L93.0619513,153.419913 C92.390846,153.419913 91.8468077,152.884981 91.8468077,152.225108 C91.8468077,151.565236 92.390846,151.030303 93.0619513,151.030303 L96.1834618,151.030303 C96.854567,151.030303 97.3986053,151.565236 97.3986053,152.225108 C97.3986053,152.884981 96.854567,153.419913 96.1834618,153.419913 L96.1834618,153.419913 Z M96.1834618,140.116883 L93.0619513,140.116883 C92.3908459,140.116883 91.8468075,139.581951 91.8468075,138.922078 C91.8468075,138.262205 92.3908459,137.727273 93.0619513,137.727273 L96.1834618,137.727273 C96.8545671,137.727273 97.3986055,138.262205 97.3986055,138.922078 C97.3986055,139.581951 96.8545671,140.116883 96.1834618,140.116883 L96.1834618,140.116883 Z M108.511007,152.393939 C104.678898,152.393939 101.57236,149.339397 101.57236,145.571429 C101.57236,141.80346 104.678898,138.748918 108.511007,138.748918 C112.343116,138.748918 115.449653,141.80346 115.449653,145.571429 C115.444795,149.340797 112.335737,152.393939 108.502201,152.393939 L108.511007,152.393939 Z M123.951257,153.419913 L120.829746,153.419913 C120.158641,153.419913 119.614603,152.884981 119.614603,152.225108 C119.614603,151.565236 120.158641,151.030303 120.829746,151.030303 L123.951257,151.030303 C124.622362,151.030303 125.1664,151.565236 125.1664,152.225108 C125.1664,152.884981 124.622362,153.419913 123.951257,153.419913 L123.951257,153.419913 Z M123.951257,140.116883 L120.829746,140.116883 C120.158641,140.116883 119.614603,139.581951 119.614603,138.922078 C119.614603,138.262205 120.158641,137.727273 120.829746,137.727273 L123.951257,137.727273 C124.622362,137.727273 125.166401,138.262205 125.166401,138.922078 C125.166401,139.581951 124.622362,140.116883 123.951257,140.116883 L123.951257,140.116883 Z" id="Shape" fill="#FFFFFF" fill-rule="nonzero"></path>
                <circle id="Oval" fill="#FFFFFF" fill-rule="nonzero" cx="108.5" cy="145.5" r="4.5"></circle>
                <rect id="Rectangle" fill="#F86B68" fill-rule="nonzero" opacity="0.2" x="179" y="105" width="166" height="92"></rect>
                <rect id="Rectangle" fill="#F86B68" fill-rule="nonzero" opacity="0.2" x="179" y="217" width="166" height="92"></rect>
                <rect id="Rectangle" fill="#FFFFFF" fill-rule="nonzero" x="211" y="168" width="5" height="17"></rect>
                <rect id="Rectangle" fill="#FFFFFF" fill-rule="nonzero" x="221" y="148" width="5" height="38"></rect>
                <rect id="Rectangle" fill="#DFE3EF" fill-rule="nonzero" x="231" y="129" width="5" height="56"></rect>
                <rect id="Rectangle" fill="#FFFFFF" fill-rule="nonzero" x="240" y="116" width="5" height="70"></rect>
                <rect id="Rectangle" fill="#F86B68" fill-rule="nonzero" x="231" y="116" width="5" height="70"></rect>
                <rect id="Rectangle" fill="#F86B68" fill-rule="nonzero" x="250" y="147" width="5" height="39"></rect>
                <rect id="Rectangle" fill="#F86B68" fill-rule="nonzero" opacity="0.2" x="259" y="137" width="5" height="48"></rect>
                <rect id="Rectangle" fill="#F86B68" fill-rule="nonzero" x="269" y="122" width="5" height="64"></rect>
                <rect id="Rectangle" fill="#F86B68" fill-rule="nonzero" opacity="0.2" x="279" y="157" width="5" height="29"></rect>
                <rect id="Rectangle" fill="#F86B68" fill-rule="nonzero" x="288" y="144" width="5" height="42"></rect>
                <rect id="Rectangle" fill="#F86B68" fill-rule="nonzero" opacity="0.2" x="298" y="129" width="5" height="56"></rect>
                <rect id="Rectangle" fill="#F86B68" fill-rule="nonzero" x="307" y="129" width="5" height="56"></rect>
                <path d="M128,251.798223 C127.995148,250.254832 126.751486,249.004876 125.215864,249 L91.801813,249 C90.2654672,249.004861 89.0205315,250.254113 89.0132578,251.798223 L89.0132578,256 L128,256 L128,251.798223 Z M89,274.197335 C89.004852,275.74318 90.2504929,276.995123 91.7885552,277 L125.215864,277 C126.753205,276.995112 127.997575,275.742461 128,274.197335 L128,260.215102 L89.0132578,260.215102 L89,274.197335 Z M101.373938,270 L115.652578,270 C116.105056,269.972589 116.535337,270.199639 116.769819,270.589544 C117.0043,270.979449 117.0043,271.467886 116.769819,271.857791 C116.535337,272.247696 116.105056,272.474746 115.652578,272.447335 L101.373938,272.447335 C100.729976,272.408324 100.227606,271.872062 100.227606,271.223668 C100.227606,270.575273 100.729976,270.039011 101.373938,270 L101.373938,270 Z M95.1074221,270 L96.1503683,270 C96.6028468,269.972589 97.0331274,270.199639 97.2676089,270.589544 C97.5020904,270.979449 97.5020904,271.467886 97.2676089,271.857791 C97.0331274,272.247696 96.6028468,272.474746 96.1503683,272.447335 L95.1074221,272.447335 C94.6549435,272.474746 94.224663,272.247696 93.9901815,271.857791 C93.7556999,271.467886 93.7556999,270.979449 93.9901815,270.589544 C94.224663,270.199639 94.6549435,269.972589 95.1074221,270 L95.1074221,270 Z" id="Shape" fill="#FFFFFF" fill-rule="nonzero"></path>
                <rect id="Rectangle" fill="#FFFFFF" fill-rule="nonzero" x="211" y="282" width="5" height="17"></rect>
                <rect id="Rectangle" fill="#FFFFFF" fill-rule="nonzero" x="221" y="260" width="5" height="38"></rect>
                <rect id="Rectangle" fill="#DFE3EF" fill-rule="nonzero" x="231" y="242" width="5" height="56"></rect>
                <rect id="Rectangle" fill="#FFFFFF" fill-rule="nonzero" x="240" y="228" width="5" height="70"></rect>
                <rect id="Rectangle" fill="#F86B68" fill-rule="nonzero" x="231" y="228" width="5" height="70"></rect>
                <rect id="Rectangle" fill="#F86B68" fill-rule="nonzero" x="250" y="260" width="5" height="39"></rect>
                <rect id="Rectangle" fill="#FFFFFF" fill-rule="nonzero" x="259" y="250" width="5" height="48"></rect>
                <rect id="Rectangle" fill="#FFFFFF" fill-rule="nonzero" x="269" y="235" width="5" height="64"></rect>
                <rect id="Rectangle" fill="#F86B68" fill-rule="nonzero" opacity="0.2" x="279" y="270" width="5" height="29"></rect>
                <rect id="Rectangle" fill="#F86B68" fill-rule="nonzero" opacity="0.2" x="288" y="257" width="5" height="42"></rect>
                <rect id="Rectangle" fill="#F86B68" fill-rule="nonzero" opacity="0.2" x="298" y="242" width="5" height="56"></rect>
                <rect id="Rectangle" fill="#F86B68" fill-rule="nonzero" opacity="0.2" x="307" y="242" width="5" height="56"></rect>
            </g>
        </g>
    </g>
</svg>
