
<svg width="479px" height="367px" viewBox="0 0 479 367" version="1.1" xmlns="http://www.w3.org/2000/svg" xmlns:xlink="http://www.w3.org/1999/xlink">
    <defs>
        <linearGradient x1="0%" y1="50.123006%" x2="99.9971732%" y2="50.123006%" id="linearGradient-1">
            <stop stop-color="#808080" stop-opacity="0.25" offset="0%"></stop>
            <stop stop-color="#808080" stop-opacity="0.12" offset="54%"></stop>
            <stop stop-color="#808080" stop-opacity="0.1" offset="100%"></stop>
        </linearGradient>
        <polygon id="path-2" points="9.96863238 19.8419176 307.241761 19.800834 307.219782 178.677645 9.94665387 178.718729"></polygon>
        <linearGradient x1="43.7763734%" y1="99.8019042%" x2="53.2620232%" y2="0.640049327%" id="linearGradient-4">
            <stop stop-color="#808080" stop-opacity="0.25" offset="0%"></stop>
            <stop stop-color="#808080" stop-opacity="0.12" offset="54%"></stop>
            <stop stop-color="#808080" stop-opacity="0.1" offset="100%"></stop>
        </linearGradient>
        <linearGradient x1="49.9993196%" y1="100%" x2="49.9993196%" y2="0%" id="linearGradient-5">
            <stop stop-color="#808080" stop-opacity="0.25" offset="0%"></stop>
            <stop stop-color="#808080" stop-opacity="0.12" offset="54%"></stop>
            <stop stop-color="#808080" stop-opacity="0.1" offset="100%"></stop>
        </linearGradient>
        <linearGradient x1="49.9962628%" y1="100%" x2="49.9962628%" y2="0%" id="linearGradient-6">
            <stop stop-color="#808080" stop-opacity="0.25" offset="0%"></stop>
            <stop stop-color="#808080" stop-opacity="0.12" offset="54%"></stop>
            <stop stop-color="#808080" stop-opacity="0.1" offset="100%"></stop>
        </linearGradient>
    </defs>
    <g id="Page-1" stroke="none" stroke-width="1" fill="none" fill-rule="evenodd">
        <g id="Desktop-HD" transform="translate(-186.000000, -977.000000)">
            <g id="undraw_address_udes" transform="translate(186.000000, 977.000000)">
                <polygon id="Rectangle" fill="url(#linearGradient-1)" fill-rule="nonzero" transform="translate(310.511452, 115.612237) rotate(-82.110000) translate(-310.511452, -115.612237) " points="220.95383 -42.0846176 400.032465 -42.0638122 400.069075 273.309092 220.99044 273.288286"></polygon>
                <polygon id="Rectangle" fill="#FFFFFF" fill-rule="nonzero" transform="translate(309.980132, 115.538335) rotate(7.890000) translate(-309.980132, -115.538335) " points="154.684965 28.4620647 465.295535 28.4260075 465.275298 202.614605 154.664728 202.650662"></polygon>
                <g id="Group" opacity="0.3" transform="translate(152.000000, 17.000000)">
                    <polygon id="f33a93cd-dff1-45ca-976d-3ca4de540e86" fill="#F86B68" fill-rule="nonzero" transform="translate(158.594207, 99.528021) rotate(7.890000) translate(-158.594207, -99.528021) " points="9.96863238 20.1101572 307.241761 20.0690736 307.219782 178.945885 9.94665387 178.986968"></polygon>
                    <g id="Clipped" transform="translate(26.851252, 8.603912)">
                        <mask id="mask-3" fill="white">
                            <use xlink:href="#path-2"></use>
                        </mask>
                        <g id="7312e2fe-1465-434b-8399-0e3c35e3f2aa" transform="translate(158.594207, 99.259781) rotate(7.890000) translate(-158.594207, -99.259781) "></g>
                        <polyline id="Path" stroke="#FFFFFF" stroke-width="5" fill="#F86B68" fill-rule="nonzero" mask="url(#mask-3)" points="-62.3708984 -47.6859169 57.14757 150.234425 129.853667 160.301002 256.794227 86.575599 156.588395 -45.7475061 -21.0149043 139.40868 -122.558233 101.29335 58.8701031 -58.040978 206.800236 170.95467"></polyline>
                    </g>
                </g>
                <path d="M290.690188,31.9085971 C288.595868,47.1419601 257.52845,79 257.52845,79 C257.52845,79 234.037837,39.515123 236.132157,24.28176 C237.380878,14.361956 243.818867,5.88438756 252.989146,2.08441329 C262.159424,-1.71556097 272.646927,-0.251567498 280.44923,5.9176788 C288.251533,12.0869251 292.164662,22.0094486 290.695222,31.8984415 L290.690188,31.9085971 Z" id="Path" fill="url(#linearGradient-4)" fill-rule="nonzero"></path>
                <path d="M289.755101,32.7075871 C287.774403,47.0338917 258.37374,77 258.37374,77 C258.37374,77 236.144219,39.8656483 238.124916,25.5393437 C240.100965,11.2487416 253.259542,1.26972532 267.515422,3.25058694 C281.771301,5.23144855 291.726071,18.4220761 289.750022,32.7126782 L289.755101,32.7075871 Z" id="Path" fill="#F86B68" fill-rule="nonzero"></path>
                <ellipse id="Oval" fill="#FFFFFF" fill-rule="nonzero" transform="translate(263.967773, 26.918842) rotate(-82.110000) translate(-263.967773, -26.918842) " cx="263.967773" cy="26.9188417" rx="13.019851" ry="13.0001586"></ellipse>
                <polygon id="Path" fill="url(#linearGradient-5)" fill-rule="nonzero" points="0 109 0 122.017722 0 367 372 367 372 122.017722 372 109"></polygon>
                <rect id="Rectangle" fill="#FFFFFF" fill-rule="nonzero" x="5" y="125" width="363" height="237"></rect>
                <rect id="Rectangle" fill="#F5F5F5" fill-rule="nonzero" x="5" y="114" width="363" height="17"></rect>
                <circle id="Oval" fill="#FF5252" fill-rule="nonzero" cx="19" cy="122" r="4"></circle>
                <circle id="Oval" fill="#FFFF00" fill-rule="nonzero" cx="31" cy="122" r="4"></circle>
                <circle id="Oval" fill="#69F0AE" fill-rule="nonzero" cx="43" cy="122" r="4"></circle>
                <rect id="Rectangle" fill="#F86B68" fill-rule="nonzero" opacity="0.5" x="153" y="188" width="67" height="7"></rect>
                <rect id="Rectangle" fill="#E0E0E0" fill-rule="nonzero" x="105" y="219" width="73" height="7"></rect>
                <rect id="Rectangle" fill="#E0E0E0" fill-rule="nonzero" transform="translate(231.500000, 222.500000) rotate(-180.000000) translate(-231.500000, -222.500000) " x="195" y="219" width="73" height="7"></rect>
                <rect id="Rectangle" fill="#E0E0E0" fill-rule="nonzero" x="105" y="234" width="163" height="7"></rect>
                <rect id="Rectangle" fill="#E0E0E0" fill-rule="nonzero" x="105" y="250" width="163" height="7"></rect>
                <rect id="Rectangle" fill="url(#linearGradient-6)" fill-rule="nonzero" x="152" y="282" width="68" height="13"></rect>
                <rect id="Rectangle" fill="#F86B68" fill-rule="nonzero" x="153" y="283" width="67" height="11"></rect>
            </g>
        </g>
    </g>
</svg>
