
<svg width="248px" height="200px" viewBox="0 0 248 200" version="1.1" xmlns="http://www.w3.org/2000/svg" xmlns:xlink="http://www.w3.org/1999/xlink">
    <g id="Page-1" stroke="none" stroke-width="1" fill="none" fill-rule="evenodd">
        <g id="Desktop-HD-Copy" transform="translate(-885.000000, -465.000000)" fill-rule="nonzero">
            <g id="undraw_business_shop_qw5t" transform="translate(885.000000, 465.000000)">
                <ellipse id="Oval" fill="#3F3D56" cx="125.478645" cy="190.243408" rx="122.533137" ry="9.57290133"></ellipse>
                <polygon id="Path" fill="#A0616A" points="229.56377 172.459499 230.712224 180.881591 222.673049 181.647128 223.821502 171.311046"></polygon>
                <path d="M191.664657,56.8484978 C191.664657,56.8484978 192.430292,67.1845803 192.430292,67.567405 C192.430292,67.9502297 187.070839,94.3646804 187.070839,94.3646804 C187.070839,94.3646804 179.414474,108.91177 187.070839,108.528951 C194.727205,108.146133 192.430292,94.7475081 192.430292,94.7475081 L200.469467,72.544056 L197.024106,56.8484978 L191.664657,56.8484978 Z" id="Path" fill="#A0616A"></path>
                <polygon id="Path" fill="#A0616A" points="204.297791 172.459499 203.149337 180.881591 211.188513 181.647128 210.040059 171.311046"></polygon>
                <path d="M195.492839,93.5990427 L193.578748,96.2787717 C193.578748,96.2787717 192.430295,107.763308 193.578748,111.591496 C194.727202,115.419685 197.024109,133.029317 197.024109,134.17777 C197.024109,135.326224 197.406925,136.091862 197.024109,136.474677 C196.641293,136.857493 195.492837,136.857496 196.258471,137.623131 C197.024106,138.388766 197.024109,140.685676 197.024109,140.685676 L197.024109,142.599761 L202.000745,170.928309 C202.000745,170.928309 198.9382,174.37367 201.235108,174.37367 C203.532015,174.37367 211.954018,174.37367 211.57119,170.54549 L210.805555,170.162672 C210.805555,170.162672 209.657102,144.896672 210.039918,143.748218 C210.422733,142.599764 210.039918,140.302857 210.039918,140.302857 C210.039918,140.302857 209.27428,139.154404 210.039918,138.771582 C210.805555,138.38876 210.805555,135.326221 210.805555,135.326221 L214.250916,111.974309 C214.250916,111.974309 217.313461,127.669856 219.227552,129.201128 C221.141644,130.732401 220.758825,134.560583 220.758825,134.560583 L222.290097,168.248583 C222.290097,168.248583 220.758825,172.076766 222.290097,172.842398 C223.82137,173.608029 230.329272,176.287758 230.712097,172.459582 C231.094922,168.631405 233.009004,135.326218 233.009004,133.794943 C233.009004,132.263667 232.626189,131.498035 233.009004,130.349582 C233.39182,129.201128 232.626189,129.201128 233.009004,129.201128 C233.39182,129.201128 232.24337,128.052675 232.24337,127.287037 L232.24337,108.528951 C232.24337,108.528951 232.626189,104.700772 233.009004,103.935137 C233.39182,103.169502 232.626189,102.403865 233.009004,101.255411 C233.39182,100.106957 232.24337,96.2787747 232.24337,96.2787747 L215.016566,91.6849602 L195.492839,93.5990427 Z" id="Path" fill="#2F2E41"></path>
                <path d="M208.891476,179.350318 C208.891476,179.350318 210.805567,177.436227 208.125838,177.436227 C206.405456,177.471313 204.710988,177.862344 203.149202,178.58468 L201.23511,185.475402 C201.23511,185.475402 193.387334,191.791909 202.192156,191.026271 C210.996978,190.260633 209.65711,190.834863 209.65711,190.834863 C209.65711,190.834863 212.336839,190.069225 212.719655,189.303591 C213.102471,188.537956 211.954021,177.436227 211.954021,177.436227 C211.954021,177.436227 210.805567,180.498772 208.891476,179.350318 Z" id="Path" fill="#2F2E41"></path>
                <path d="M225.352657,179.350318 C225.352657,179.350318 223.438566,177.436221 226.118295,177.436221 C227.838676,177.471313 229.533145,177.862344 231.094931,178.58468 L233.009019,185.475402 C233.009019,185.475402 240.856792,191.791903 232.051976,191.026265 C223.247161,190.260627 223.438566,190.834857 223.438566,190.834857 C223.438566,190.834857 220.758839,190.069219 220.376021,189.303585 C219.993202,188.53795 222.290112,177.436221 222.290112,177.436221 C222.290112,177.436221 223.438566,180.498772 225.352657,179.350318 Z" id="Path" fill="#2F2E41"></path>
                <circle id="Oval" fill="#A0616A" cx="200.469476" cy="16.6525862" r="9.95327246"></circle>
                <path d="M197.024112,23.9261237 C197.024112,23.9261237 198.555384,31.582489 198.555384,32.7309426 C198.555384,33.8793962 205.063293,37.324757 205.063293,37.324757 L212.336839,28.1371281 C212.336839,28.1371281 207.743025,21.6292194 207.743025,20.0979529 L197.024112,23.9261237 Z" id="Path" fill="#A0616A"></path>
                <path d="M202.766383,33.879405 C202.766383,33.879405 199.429832,32.9913343 198.41838,31.5212813 C198.41838,31.5212813 187.836474,41.9185891 187.836474,43.8326775 L196.258474,58.7625891 C196.258474,58.7625891 196.258474,64.1220412 197.024112,64.5048571 C197.78975,64.887673 197.024112,64.5048571 197.024112,66.0361296 C197.024112,67.5674021 194.727205,77.5206657 195.492839,79.0519499 C196.258474,80.5832342 197.024112,79.4347658 196.258474,81.731676 C195.492837,84.0285862 193.578748,96.2787688 193.578748,96.2787688 C193.578748,96.2787688 200.46947,93.9818616 210.422748,97.8100412 C220.376027,101.638221 232.243384,96.2787688 232.243384,96.2787688 C232.243384,96.2787688 229.180839,89.3880471 229.946477,87.0911399 C230.712115,84.7942327 228.032386,80.5832312 228.032386,80.5832312 L226.118297,45.3639588 C226.118297,45.3639588 228.798024,29.6684124 226.883932,28.9027747 L223.055747,27.3714845 L210.796383,25.8647599 C210.796383,25.8647599 207.743019,33.4965891 202.766383,33.879405 Z" id="Path" fill="#D0CDE1"></path>
                <path d="M191.664657,41.1529514 L187.836474,43.8326775 C187.836474,43.8326775 185.922383,49.5749455 187.836474,52.2546775 C189.750566,54.9344094 190.516203,58.7625891 190.516203,58.7625891 L198.172566,57.9969514 L191.664657,41.1529514 Z" id="Path" fill="#D0CDE1"></path>
                <path d="M192.870203,6.13368483 L191.143685,5.44248306 C191.143685,5.44248306 194.753664,1.46810898 199.776286,1.81371429 L198.363644,0.258500736 C198.363644,0.258500736 201.816683,-1.12387923 204.9558,2.50488954 C206.605971,4.4124595 208.51524,6.65470103 209.705473,9.18056259 L211.554457,9.18056259 L210.78276,10.8797526 L213.483697,12.5789396 L210.711449,12.2737202 C210.974037,13.7406744 210.884164,15.2490359 210.44924,16.67443 L210.523549,18.0174698 C210.523549,18.0174698 207.310124,13.0456348 207.310124,12.3544359 L207.310124,14.08243 C207.310124,14.08243 205.583605,12.527243 205.583605,11.4904507 L204.641873,12.7000501 L204.17101,10.7992489 L198.363647,12.7000501 L199.305376,11.144863 L195.695396,11.6632725 L197.108038,9.76247128 C197.108038,9.76247128 193.027193,12.008863 192.870206,13.9096642 C192.713267,15.8104389 190.672857,18.2296348 190.672857,18.2296348 L189.731128,16.5016406 C189.731128,16.5016406 188.318495,8.72566421 192.870203,6.13368483 Z" id="Path" fill="#2F2E41"></path>
                <rect id="Rectangle" fill="#F2F2F2" x="43.0542386" y="83.3083947" width="152.124533" height="106.862518"></rect>
                <rect id="Rectangle" fill="#3F3D56" x="55.8600766" y="124.081337" width="38.1967275" height="66.6786775"></rect>
                <rect id="Rectangle" fill="#F2F2F2" x="62.9253667" y="128.081467" width="10.2891487" height="9.59157879"></rect>
                <rect id="Rectangle" fill="#F2F2F2" x="76.7023652" y="128.081467" width="10.2891487" height="9.59157879"></rect>
                <rect id="Rectangle" fill="#F2F2F2" x="62.9253667" y="141.160895" width="10.2891487" height="9.94036524"></rect>
                <rect id="Rectangle" fill="#F2F2F2" x="76.7023652" y="141.160895" width="10.2891487" height="9.94036524"></rect>
                <circle id="Oval" fill="#F86B68" cx="89.1994168" cy="161.90975" r="2.42869219"></circle>
                <rect id="Rectangle" fill="#3F3D56" x="106.862642" y="117.751685" width="75.5102916" height="63.3668218"></rect>
                <polygon id="Path" fill="#3F3D56" points="211.0757 103.426804 27.1572901 103.426804 39.4200295 77.7885125 42.1643594 72.0480118 45.7546392 64.5410898 48.4989691 58.8005891 51.6804124 52.1505155 196.585272 52.1505155 198.464212 58.8005891 200.086892 64.5410898 202.208837 72.0480118 203.831517 77.7885125"></polygon>
                <rect id="Rectangle" fill="#F86B68" x="109.512127" y="144.025735" width="2.64948454" height="16.3384831"></rect>
                <rect id="Rectangle" fill="#F2F2F2" x="109.512127" y="146.454427" width="2.64948454" height="1.9871134"></rect>
                <rect id="Rectangle" fill="#F2F2F2" x="109.512127" y="155.948412" width="2.64948454" height="1.9871134"></rect>
                <rect id="Rectangle" fill="#F86B68" x="113.486353" y="144.025735" width="6.402919" height="16.3384831"></rect>
                <rect id="Rectangle" fill="#F2F2F2" x="113.486353" y="146.454427" width="6.402919" height="1.9871134"></rect>
                <rect id="Rectangle" fill="#F2F2F2" x="113.486353" y="155.948412" width="6.402919" height="1.9871134"></rect>
                <rect id="Rectangle" fill="#F86B68" x="121.434804" y="144.025735" width="2.64948454" height="16.3384831"></rect>
                <rect id="Rectangle" fill="#F2F2F2" x="121.434804" y="146.454427" width="2.64948454" height="1.9871134"></rect>
                <rect id="Rectangle" fill="#F2F2F2" x="121.434804" y="155.948412" width="2.64948454" height="1.9871134"></rect>
                <rect id="Rectangle" fill="#F86B68" x="125.409031" y="144.025735" width="2.64948454" height="16.3384831"></rect>
                <rect id="Rectangle" fill="#F2F2F2" x="125.409031" y="146.454427" width="2.64948454" height="1.9871134"></rect>
                <rect id="Rectangle" fill="#F2F2F2" x="125.409031" y="155.948412" width="2.64948454" height="1.9871134"></rect>
                <polygon id="Rectangle" fill="#F86B68" transform="translate(132.253527, 152.194978) rotate(-20.654110) translate(-132.253527, -152.194978) " points="130.928785 144.025736 133.578269 144.025736 133.578269 160.364219 130.928785 160.364219"></polygon>
                <polygon id="Rectangle" fill="#F2F2F2" transform="translate(130.579144, 147.753093) rotate(-20.654110) translate(-130.579144, -147.753093) " points="129.254402 146.759536 131.903887 146.759536 131.903887 148.746649 129.254402 148.746649"></polygon>
                <polygon id="Rectangle" fill="#F2F2F2" transform="translate(133.927913, 156.636867) rotate(-20.654110) translate(-133.927913, -156.636867) " points="132.603171 155.64331 135.252655 155.64331 135.252655 157.630424 132.603171 157.630424"></polygon>
                <rect id="Rectangle" fill="#F86B68" x="173.54132" y="144.025735" width="6.402919" height="16.3384831"></rect>
                <rect id="Rectangle" fill="#F2F2F2" x="173.54132" y="146.454427" width="6.402919" height="1.9871134"></rect>
                <rect id="Rectangle" fill="#F2F2F2" x="173.54132" y="155.948412" width="6.402919" height="1.9871134"></rect>
                <rect id="Rectangle" fill="#F86B68" x="169.346303" y="144.025735" width="2.64948454" height="16.3384831"></rect>
                <rect id="Rectangle" fill="#F2F2F2" x="169.346303" y="146.454427" width="2.64948454" height="1.9871134"></rect>
                <rect id="Rectangle" fill="#F2F2F2" x="169.346303" y="155.948412" width="2.64948454" height="1.9871134"></rect>
                <rect id="Rectangle" fill="#F86B68" x="165.37208" y="144.025735" width="2.64948454" height="16.3384831"></rect>
                <rect id="Rectangle" fill="#F2F2F2" x="165.37208" y="146.454427" width="2.64948454" height="1.9871134"></rect>
                <rect id="Rectangle" fill="#F2F2F2" x="165.37208" y="155.948412" width="2.64948454" height="1.9871134"></rect>
                <polygon id="Rectangle" fill="#F86B68" transform="translate(161.177061, 152.194973) rotate(-69.345890) translate(-161.177061, -152.194973) " points="153.007819 150.87023 169.346302 150.87023 169.346302 153.519715 153.007819 153.519715"></polygon>
                <polygon id="Rectangle" fill="#F2F2F2" transform="translate(162.851445, 147.753084) rotate(-69.345890) translate(-162.851445, -147.753084) " points="161.857889 146.428342 163.845002 146.428342 163.845002 149.077826 161.857889 149.077826"></polygon>
                <polygon id="Rectangle" fill="#F2F2F2" transform="translate(159.502677, 156.636861) rotate(-69.345890) translate(-159.502677, -156.636861) " points="158.50912 155.312119 160.496233 155.312119 160.496233 157.961603 158.50912 157.961603"></polygon>
                <rect id="Rectangle" fill="#F2F2F2" x="106.862642" y="160.364218" width="75.5102916" height="1.54553166"></rect>
                <rect id="Rectangle" fill="#F86B68" x="139.760401" y="144.025735" width="13.9097909" height="16.3384831"></rect>
                <rect id="Rectangle" fill="#F2F2F2" x="143.182651" y="147.55838" width="7.06529013" height="3.09106333"></rect>
                <rect id="Rectangle" fill="#F2F2F2" x="143.955417" y="117.751685" width="1.32474227" height="14.1305803"></rect>
                <circle id="Oval" fill="#F2F2F2" cx="144.617788" cy="131.882268" r="2.2079028"></circle>
                <polygon id="Path" fill="#F86B68" points="200.086892 64.5410898 45.7546392 64.5410898 48.4989691 58.8005891 198.464212 58.8005891"></polygon>
                <polygon id="Path" fill="#F86B68" points="203.831517 77.7885125 39.4200295 77.7885125 42.1643594 72.0480118 202.208837 72.0480118"></polygon>
                <path d="M219.993202,44.5983152 C219.993202,44.5983152 217.776356,50.298757 218.239426,55.9387982 C218.324119,56.9486041 218.664149,57.9203012 219.227564,58.7625862 L219.227564,58.7625862 L192.068742,71.6563152 C192.068742,71.6563152 179.797293,72.9268483 182.859838,78.2863034 C185.922383,83.6457585 197.024112,75.6065773 197.024112,75.6065773 C197.024112,75.6065773 226.118295,71.3955758 228.415202,67.1845773 C230.712109,62.9735788 232.243384,45.3639411 232.243384,45.3639411 L219.993202,44.5983152 Z" id="Path" fill="#A0616A"></path>
                <path d="M221.141655,28.9027688 L226.883923,28.9027688 C226.883923,28.9027688 231.094925,29.6684065 232.243378,37.3247688 C233.391832,44.9811311 234.540286,46.8952253 233.391832,46.8952253 C232.243378,46.8952253 218.461935,46.5124065 218.461935,46.1295876 C218.461935,45.7467688 221.141655,28.9027688 221.141655,28.9027688 Z" id="Path" fill="#D0CDE1"></path>
                <circle id="Oval" fill="#F86B68" cx="29.455081" cy="113.807473" r="29.455081"></circle>
                <circle id="Oval" fill="#000000" opacity="0.1" cx="29.455081" cy="113.807473" r="25.3313697"></circle>
                <path d="M28.2412636,128.755311 L28.2412636,125.068392 C26.3775405,125.032032 24.4494934,124.374725 23.3248895,123.462165 L24.0960236,121.016459 C25.4324835,122.018001 27.0532521,122.567752 28.7232459,122.585973 C31.0047717,122.585973 32.5471782,121.089361 32.5471782,119.008675 C32.5471782,117.00089 31.2939234,115.759859 28.9160648,114.664622 C25.63843,113.204533 23.6140501,111.525237 23.6140501,108.349496 C23.6140501,105.319546 25.5099352,103.019817 28.4662563,102.472289 L28.4662563,98.7853814 L30.4584742,98.7853814 L30.4584742,102.326321 C31.9440457,102.346603 33.3930843,102.789759 34.6358763,103.603885 L33.83243,106.013228 C32.6405032,105.197316 31.2280883,104.764318 29.7836701,104.772018 C27.3094816,104.772018 26.3775405,106.451143 26.3775405,107.911402 C26.3775405,109.809573 27.5664713,110.75866 30.3621325,112.072946 C33.6717732,113.6061 35.3428336,115.504271 35.3428336,118.75309 C35.3428336,121.636887 33.5754404,124.338362 30.2656436,124.958601 L30.2656436,128.755311 L28.2412636,128.755311 Z" id="Path" fill="#F2F2F2"></path>
            </g>
        </g>
    </g>
</svg>
